<svg width="109" height="32" viewBox="0 0 109 32" fill="none" xmlns="http://www.w3.org/2000/svg">
<path d="M6.39387 0C2.86263 0 0 2.86538 0 6.4L0 25.6C0 29.1346 2.86263 32 6.39387 32H14.7059C15.2356 32 15.6651 31.5702 15.6651 31.04V24.647C15.6651 24.3914 15.5661 24.1492 15.385 23.969C14.2387 22.8278 9.86935 18.4772 7.84667 16.4525C7.59697 16.2026 7.59697 15.7974 7.84667 15.5475C9.86936 13.5228 14.2387 9.17216 15.385 8.03098C15.5661 7.85078 15.6651 7.60856 15.6651 7.35302V0.96C15.6651 0.429807 15.2357 0 14.706 0L6.39387 0Z" fill="white"/>
<path d="M17.2634 0C16.7337 0 16.3045 0.429806 16.3045 0.96V7.35459C16.3045 7.6092 16.4055 7.85338 16.5853 8.03342L23.9437 15.3988C24.1236 15.5789 24.3675 15.68 24.6219 15.68H31.0102C31.5399 15.68 31.9694 15.2502 31.9694 14.72L31.9693 6.4C31.9693 2.86538 29.1067 0 25.5755 0L17.2634 0Z" fill="white"/>
<path d="M31.9694 17.28C31.9694 16.7498 31.5399 16.32 31.0102 16.32H24.6219C24.3675 16.32 24.1236 16.4211 23.9437 16.6012L16.5853 23.9666C16.4055 24.1466 16.3045 24.3908 16.3045 24.6454V31.04C16.3045 31.5702 16.7338 32 17.2635 32H25.5755C29.1067 32 31.9693 29.1346 31.9693 25.6L31.9694 17.28Z" fill="white"/>
<path d="M40.1135 22V9.13H45.0048C46.7911 9.13 48.1878 9.688 49.1948 10.804C50.2138 11.908 50.7233 13.498 50.7233 15.574C50.7233 17.638 50.2198 19.228 49.2128 20.344C48.2177 21.448 46.8271 22 45.0408 22H40.1135ZM42.0916 10.84V20.29H44.9149C45.6582 20.29 46.2756 20.164 46.7671 19.912C47.2587 19.66 47.6423 19.312 47.918 18.868C48.1938 18.424 48.3856 17.92 48.4935 17.356C48.6134 16.792 48.6733 16.198 48.6733 15.574C48.6733 14.95 48.6134 14.356 48.4935 13.792C48.3856 13.228 48.1938 12.724 47.918 12.28C47.6423 11.836 47.2587 11.488 46.7671 11.236C46.2756 10.972 45.6582 10.84 44.9149 10.84H42.0916ZM56.3551 22.27C55.3841 22.27 54.5569 22.06 53.8735 21.64C53.2022 21.208 52.6926 20.626 52.345 19.894C51.9973 19.162 51.8235 18.328 51.8235 17.392C51.8235 16.432 52.0033 15.586 52.363 14.854C52.7346 14.122 53.2561 13.552 53.9275 13.144C54.6108 12.736 55.42 12.532 56.3551 12.532C57.7458 12.532 58.8188 12.958 59.574 13.81C60.3293 14.65 60.707 15.784 60.707 17.212C60.707 17.332 60.707 17.458 60.707 17.59C60.707 17.71 60.701 17.806 60.689 17.878H53.6397C53.6517 18.394 53.7596 18.88 53.9634 19.336C54.1672 19.78 54.4729 20.14 54.8805 20.416C55.2882 20.692 55.7917 20.83 56.3911 20.83C56.9306 20.83 57.3622 20.734 57.6859 20.542C58.0215 20.35 58.2733 20.128 58.4411 19.876C58.621 19.612 58.7408 19.378 58.8008 19.174H60.5811C60.3533 20.05 59.8917 20.788 59.1964 21.388C58.5131 21.976 57.566 22.27 56.3551 22.27ZM56.3012 13.972C55.5699 13.972 54.9585 14.206 54.4669 14.674C53.9754 15.13 53.6997 15.736 53.6397 16.492H58.8547C58.8547 15.772 58.621 15.172 58.1534 14.692C57.6978 14.212 57.0804 13.972 56.3012 13.972ZM68.3784 16.15C68.3544 15.826 68.2705 15.502 68.1266 15.178C67.9828 14.842 67.743 14.566 67.4073 14.35C67.0836 14.122 66.6401 14.008 66.0766 14.008C65.4292 14.008 64.9077 14.17 64.5121 14.494C64.1285 14.818 63.8467 15.244 63.6669 15.772C63.4991 16.288 63.4152 16.834 63.4152 17.41C63.4152 17.986 63.4991 18.532 63.6669 19.048C63.8467 19.564 64.1285 19.984 64.5121 20.308C64.9077 20.632 65.4292 20.794 66.0766 20.794C66.6401 20.794 67.0836 20.686 67.4073 20.47C67.743 20.242 67.9828 19.96 68.1266 19.624C68.2705 19.288 68.3544 18.946 68.3784 18.598H70.2126C70.1767 19.294 69.9789 19.924 69.6192 20.488C69.2595 21.04 68.774 21.478 68.1626 21.802C67.5632 22.114 66.8738 22.27 66.0946 22.27C65.1835 22.27 64.3862 22.066 63.7029 21.658C63.0315 21.25 62.51 20.68 62.1384 19.948C61.7667 19.216 61.5809 18.37 61.5809 17.41C61.5809 16.45 61.7667 15.604 62.1384 14.872C62.51 14.14 63.0315 13.57 63.7029 13.162C64.3862 12.754 65.1775 12.55 66.0766 12.55C66.8678 12.55 67.5572 12.706 68.1446 13.018C68.744 13.33 69.2176 13.756 69.5653 14.296C69.9249 14.836 70.1407 15.454 70.2126 16.15H68.3784ZM71.292 9.274H73.2881V11.182H71.292V9.274ZM71.4179 12.82H73.1802V22H71.4179V12.82ZM81.3634 13.936H81.3994V9.13H83.1797V22H81.3994V20.92H81.3634C81.1237 21.244 80.77 21.55 80.3025 21.838C79.8469 22.114 79.2595 22.252 78.5401 22.252C77.7609 22.252 77.0596 22.06 76.4362 21.676C75.8247 21.292 75.3392 20.74 74.9796 20.02C74.6199 19.288 74.4401 18.418 74.4401 17.41C74.4401 16.402 74.6199 15.538 74.9796 14.818C75.3392 14.086 75.8247 13.528 76.4362 13.144C77.0596 12.748 77.7609 12.55 78.5401 12.55C79.2595 12.55 79.8469 12.694 80.3025 12.982C80.77 13.258 81.1237 13.576 81.3634 13.936ZM78.8279 20.794C79.6191 20.794 80.2425 20.488 80.6981 19.876C81.1656 19.264 81.3994 18.442 81.3994 17.41C81.3994 16.366 81.1656 15.544 80.6981 14.944C80.2425 14.332 79.6191 14.026 78.8279 14.026C78.2524 14.026 77.7729 14.182 77.3892 14.494C77.0176 14.806 76.7359 15.22 76.5441 15.736C76.3642 16.252 76.2743 16.81 76.2743 17.41C76.2743 18.01 76.3642 18.568 76.5441 19.084C76.7359 19.6 77.0176 20.014 77.3892 20.326C77.7729 20.638 78.2524 20.794 78.8279 20.794ZM88.975 22.27C88.004 22.27 87.1768 22.06 86.4934 21.64C85.8221 21.208 85.3125 20.626 84.9649 19.894C84.6172 19.162 84.4434 18.328 84.4434 17.392C84.4434 16.432 84.6232 15.586 84.9829 14.854C85.3545 14.122 85.876 13.552 86.5474 13.144C87.2307 12.736 88.0399 12.532 88.975 12.532C90.3657 12.532 91.4387 12.958 92.1939 13.81C92.9492 14.65 93.3269 15.784 93.3269 17.212C93.3269 17.332 93.3269 17.458 93.3269 17.59C93.3269 17.71 93.3209 17.806 93.3089 17.878H86.2596C86.2716 18.394 86.3795 18.88 86.5833 19.336C86.7871 19.78 87.0928 20.14 87.5004 20.416C87.9081 20.692 88.4116 20.83 89.011 20.83C89.5505 20.83 89.9821 20.734 90.3058 20.542C90.6414 20.35 90.8932 20.128 91.061 19.876C91.2409 19.612 91.3607 19.378 91.4207 19.174H93.201C92.9732 20.05 92.5116 20.788 91.8163 21.388C91.133 21.976 90.1859 22.27 88.975 22.27ZM88.9211 13.972C88.1898 13.972 87.5784 14.206 87.0868 14.674C86.5953 15.13 86.3196 15.736 86.2596 16.492H91.4746C91.4746 15.772 91.2409 15.172 90.7733 14.692C90.3177 14.212 89.7003 13.972 88.9211 13.972ZM102.419 18.904H97.0421L95.9811 22H93.8951L98.6785 9.13H100.818L105.638 22H103.48L102.419 18.904ZM97.6175 17.23H101.843L99.7575 10.966H99.7215L97.6175 17.23ZM106.625 9.13H108.603V22H106.625V9.13Z" fill="white"/>
</svg>
