<svg width="390" height="558" viewBox="0 0 390 558" fill="none" xmlns="http://www.w3.org/2000/svg">
<path d="M426.72 241.861C441.854 250.07 451.865 265.452 456.607 282.004C469.334 326.422 444.439 389.186 405.62 399.19C366.477 409.279 329.796 400.77 296.232 400.77C264.121 400.77 227.375 408.091 197.104 407.089C133.265 404.974 114.356 393.747 91.2689 393.398C68.4288 393.053 44.9087 403.797 2.04348 397.983C-27.8775 393.925 -50.1029 364.72 -50.1029 320.385C-50.1029 294.405 -37.2208 271.151 -25.6561 258.334C-31.7284 276.552 -27.9793 297.729 -16.0216 312.755C-22.5058 301.113 -17.9158 286.345 -10.8582 275.042C-3.80045 263.738 5.6951 253.676 9.85095 241.016C15.5883 223.54 10.0117 204.182 0.910611 188.198C15.991 193.471 29.9119 202.921 38.7447 216.233C47.577 229.545 50.8294 246.893 45.5546 261.973C43.7317 267.184 40.9075 272.354 41.4263 277.849C41.945 283.345 48.0863 288.631 52.8009 285.76C54.5512 284.694 55.6118 282.812 56.5454 280.987C62.631 269.093 66.6119 255.707 65.1612 242.425C63.7429 229.438 57.3079 217.592 50.6432 206.356C43.9787 195.119 36.8493 183.851 33.7811 171.153C30.7128 158.454 32.4631 143.74 41.707 134.509C40.0861 151.343 50.1421 167.292 62.5318 178.804C74.9212 190.316 110.314 214.856 128.411 248.947C153.178 295.602 120.721 332.726 138.457 335.565C156.194 338.405 177.253 286.333 158.049 255.186C150.521 242.977 141.969 231.925 126.972 225.796C147.053 222.587 165.999 236.687 178.262 252.909C190.524 269.132 198.998 288.281 213.382 302.656C216.408 305.68 219.829 308.551 223.967 309.64C228.104 310.728 233.097 309.57 235.371 305.946C236.811 303.649 236.965 300.774 236.725 298.075C234.969 278.32 216.112 265.484 201.418 252.165C186.974 239.072 175.019 222.699 169.657 203.956C164.296 185.213 166.104 163.976 176.92 147.757C182.521 139.358 190.376 132.377 194.375 123.108C200.739 108.358 195.746 90.6795 185.949 77.9481C176.153 65.2167 162.247 56.4075 148.641 47.8669C171.404 44.0652 195.663 50.3394 213.729 64.6997C231.794 79.0596 243.379 101.279 244.81 124.312C245.651 137.852 243.217 151.908 247.691 164.716C248.913 151.344 254.417 138.397 263.198 128.238C254.061 171.847 277.143 220.184 316.802 240.491C329.286 246.883 343.113 250.735 354.681 258.664C367.538 267.476 376.706 280.745 383.814 294.617C382.637 277.726 369.751 264.412 358.927 251.392C348.103 238.373 338.24 221.141 344.219 205.301C352.014 218.597 367.523 225.249 382.477 228.98C397.431 232.712 413.172 234.513 426.72 241.861Z" fill="#FFC93F"/>
<path d="M387.233 273.731C383.001 264.376 377.411 256.757 370.753 249.007C366.158 243.658 359.229 237.352 358.152 230.537C366.561 236.983 374.515 243.162 384.318 247.522C398.676 253.907 413.588 253.839 426.247 264.445C443.168 278.622 452.059 314.453 447.744 336.253C443.429 358.053 422.718 382.958 410.359 389.712C391.442 400.05 341.345 398.311 319.908 396.031C280.299 391.819 247.693 401.237 217.426 402.35C171.124 404.052 156.437 400.142 110.858 391.819C55.4593 381.703 -0.273532 410.458 -27.8783 374.512C-50.1038 345.571 -44.1382 306.052 -39.3356 294.247C-31.4633 318.024 -11.6408 326.069 -11.6408 326.069C-11.6408 326.069 -11.1999 301.13 -2.96927 284.475C9.98153 258.267 31.8217 243.102 22.4165 215.275C30.4475 227.565 32.8732 241.757 32.0364 256.309C31.6109 263.71 26.3239 276.019 28.2125 283.761C30.7653 294.225 42.46 298.974 52.6591 298.506C75.6301 297.45 82.4021 272.928 80.2668 253.383C77.7043 229.93 61.3193 210.672 55.4691 188.258C61.0172 198.494 68.0966 206.18 77.1382 213.459C97.8411 230.129 111.063 248.318 116.593 275.179C119.192 287.804 118.165 299.316 116.81 311.994C115.645 322.889 113.48 333.139 117.45 343.971C124.095 362.106 141.717 355.99 155.648 349.434C172.967 341.283 180.817 325.148 180.911 306.208C180.95 298.367 179.379 290.126 177.709 282.527C175.295 271.538 167.884 263.209 164.869 252.913C175.477 263.435 180.418 279.136 187.702 291.878C196.333 306.975 209.835 327.636 225.247 336.691C252.186 352.517 274.01 323.228 263.901 299.321C256.414 281.611 241.21 268.145 227.805 254.966C211.562 238.995 188.322 217.341 184.568 193.474C180.746 169.168 200.428 156.512 211.083 137.659C219.285 123.149 217.275 107.787 217.371 91.6794C228.887 113.196 229.143 137.146 228.869 160.84C228.641 180.564 231.389 203.509 249.64 215.063C247.64 204.696 242.865 192.564 250.156 183.032C245.787 212.859 280.421 250.493 306.53 260.68C323.503 267.302 340.448 272.689 355.658 283.182C366.509 290.667 381.308 306.314 382.657 320.17C391.905 305.517 394.382 289.536 387.233 273.731Z" fill="#FFA800"/>
<path d="M416.151 377.602C402.827 389.186 369.948 395.57 345.592 392.872C305.715 388.455 290.031 390.953 259.764 392.065C213.461 393.767 161.717 400.404 117.434 386.774C77.2154 374.396 9.38812 398.685 -15.7232 381.702C-40.8345 364.719 -41.1505 319.68 -36.7263 315.468C-12.466 345.57 4.67648 333.548 4.67648 333.548C4.67648 333.548 0.171231 320.385 3.75943 300.573C5.02441 293.59 9.17819 287.477 10.4174 280.453C18.4058 300.213 37.8813 323.546 61.5579 316.74C74.0347 313.154 84.0262 302.953 89.6197 291.506C94.9288 280.641 93.6991 270.446 92.6894 258.736C103.744 284.731 91.9651 311.631 97.0848 338.022C100.713 356.723 120.029 368.676 137.487 372.937C152.473 376.594 175.498 372.007 188.199 362.667C197.727 355.66 201.24 339.467 196.481 328.507C208.628 342.973 229.472 359.493 249.356 359.528C274.16 359.572 278.214 327.06 273.59 309.111C267.162 284.165 251.439 271.611 233.877 254.255C217.933 238.5 204.149 207.828 209.527 177.442C213.4 204.673 235.935 238.01 251.57 254.095C264.235 267.124 279.771 273.393 296.436 280.327C317.236 288.982 337.879 292.174 355.788 307.053C368.948 317.987 372.239 327.914 373.75 344.451C388.181 335.163 402.037 321.768 405.882 304.401C408.479 292.674 408.585 274.767 400.854 265.004C413.14 275.32 424.038 286.833 431.18 301.911C448.826 339.163 429.475 366.018 416.151 377.602Z" fill="#FFA800"/>
<path d="M-5.27387 273.656C-4.0329 271.248 -3.0084 268.483 -1.42362 266.294C0.319852 263.886 2.27771 261.609 4.12246 259.277C7.54278 254.952 10.5791 250.622 12.8061 245.561C16.6934 236.725 17.5835 226.725 16.702 217.182C16.6857 217.006 16.9314 216.958 16.9969 217.116C20.883 226.503 20.3127 236.734 16.9125 246.191C15.0293 251.429 11.8621 256.027 8.44323 260.37C6.49487 262.846 4.52752 265.309 2.55398 267.764C0.546963 270.261 -2.15827 272.147 -4.5958 274.218C-4.94138 274.513 -5.47315 274.043 -5.27387 273.656Z" fill="#FFA800"/>
<path d="M-31.1293 300.689C-31.4734 300.175 -31.7816 299.727 -32.2152 299.287C-32.7227 298.771 -33.253 298.287 -33.5722 297.63C-34.5789 295.559 -35.3133 293.162 -35.9262 290.94C-37.0372 286.918 -37.1947 282.068 -35.0711 278.363C-34.6533 277.634 -33.3323 277.874 -33.5532 278.824C-33.9829 280.671 -33.979 282.606 -33.6613 284.472C-33.3347 286.391 -32.5338 288.144 -31.8983 289.969C-31.2128 291.938 -30.283 293.819 -29.6005 295.784C-29.1676 297.032 -29.4696 298.359 -29.0823 299.629C-28.7175 300.824 -28.2675 301.987 -27.8988 303.181C-27.7635 303.62 -28.3021 304.088 -28.6805 303.731C-29.6417 302.825 -30.3967 301.784 -31.1293 300.689Z" fill="#FFA800"/>
<path d="M-15.7202 264.277C-15.2758 261.421 -13.3114 258.819 -12.1575 256.194C-10.857 253.237 -9.61777 250.233 -8.27582 247.267C-5.60288 241.359 -2.69895 235.588 -1.07273 229.267C1.71127 218.446 2.27978 207.504 -2.53253 197.128C-2.60892 196.964 -2.36643 196.861 -2.26425 196.989C4.90744 205.945 7.47381 218.763 5.44784 229.98C4.23587 236.689 1.82287 243.419 -1.71173 249.261C-3.56092 252.318 -5.6218 255.192 -8.21628 257.626C-10.6059 259.868 -12.3574 263.061 -15.3664 264.571C-15.5523 264.665 -15.748 264.457 -15.7202 264.277Z" fill="#FFA800"/>
<path d="M77.1186 180.309C71.344 175.128 66.2071 168.805 61.9346 162.348C59.7603 159.061 57.8083 155.628 56.0435 152.106C54.187 148.399 53.0466 144.649 51.7571 140.73C51.6419 140.38 52.1714 140.059 52.3606 140.417C54.2349 143.963 56.6132 147.312 58.8506 150.651C61.1262 154.046 63.6289 157.281 66.3084 160.367C71.7334 166.616 78.0564 171.773 84.754 176.595C95.1915 184.11 112.236 192.038 110.769 207.33C110.742 207.616 110.373 207.644 110.219 207.454C101.062 196.177 87.7696 189.864 77.1186 180.309Z" fill="#FFA800"/>
<path d="M147.885 168.941C147.183 165.659 146.726 162.405 146.819 159.045C147.021 151.782 149.019 145.181 152.849 139.001C157.367 131.711 163.878 126.049 168.719 119.009C172.961 112.84 175.498 106.041 176.313 98.6205C177.235 90.2323 174.208 83.4598 169.714 76.5951C169.541 76.3307 169.825 75.9144 170.137 76.0867C175.724 79.1796 179.079 85.6652 180.627 91.6691C182.541 99.093 181.972 106.188 179.554 113.438C176.957 121.226 172.078 127.742 167.036 134.105C164.364 137.476 161.54 140.843 159.49 144.643C157.836 147.707 156.725 150.95 155.704 154.267C154.616 157.798 154.086 161.483 153.786 165.159C153.47 169.022 154.527 172.925 153.838 176.772C153.692 177.588 152.634 178.063 151.981 177.463C149.555 175.231 148.557 172.072 147.885 168.941Z" fill="#FFA800"/>
<path d="M298.938 213.045C293.153 207.74 288.748 200.978 284.955 194.154C281.163 187.332 278.154 180.313 276.123 172.77C275.124 169.062 274.401 165.276 274.088 161.445C273.773 157.578 274.396 153.974 274.576 150.146C274.614 149.354 275.921 149.251 276.117 150.004C277.014 153.451 278.682 156.774 279.854 160.155C281.055 163.616 282.268 167.055 283.553 170.491C285.985 176.988 288.926 183.442 292.387 189.457C295.942 195.638 300.371 201.121 304.411 206.967C306.475 209.953 308.533 212.952 310.59 215.929C312.688 218.966 315.706 221.569 318.226 224.234C318.795 224.836 318.262 226.021 317.386 225.578C313.914 223.823 310.955 221.474 307.672 219.438C304.514 217.48 301.706 215.585 298.938 213.045Z" fill="#FFA800"/>
<path d="M367.318 207.773C367.018 207.359 367.49 206.87 367.928 207.039C369.422 207.616 371.081 207.496 372.585 208.068C374.261 208.704 375.915 209.39 377.599 210.009C380.734 211.163 383.874 212.046 387.128 212.797C393.816 214.339 400.487 215.676 407.256 216.832C420.667 219.121 435.196 221.582 445.373 231.41C448.942 234.856 451.425 238.559 453.443 243.067C455.317 247.254 458.023 251.484 458.42 256.163C458.465 256.698 457.832 256.838 457.521 256.491C454.693 253.341 453.035 249.23 450.267 246.005C447.667 242.975 444.184 240.125 440.968 237.772C435.875 234.047 429.847 231.574 423.909 229.55C411.226 225.226 397.532 224.598 384.912 220.099C381.535 218.895 378.185 217.368 375.091 215.556C373.449 214.595 371.815 213.473 370.378 212.22C368.938 210.964 368.407 209.274 367.318 207.773Z" fill="#FFA800"/>
<path d="M276.36 228.741C274.111 225.533 273.342 221.923 271.736 218.441C270.319 215.368 268.821 212.654 268.487 209.227C268.464 208.982 268.761 208.913 268.902 209.075C271.201 211.722 272.642 215.102 275.074 217.61C277.384 219.992 280.276 221.766 282.595 224.169C287.414 229.166 292.199 233.892 297.844 237.987C303.812 242.316 309.953 246.427 316.374 250.058C319.488 251.82 322.626 253.55 325.774 255.25C327.416 256.137 329.085 256.979 330.702 257.911C332.504 258.95 334.043 260.217 335.804 261.301C336.175 261.529 336.07 262.2 335.562 262.096C333.456 261.663 331.396 261.516 329.307 260.943C327.656 260.491 326.033 259.936 324.409 259.399C320.562 258.126 316.783 256.733 313.057 255.139C305.827 252.047 298.787 248.494 292.438 243.819C286.723 239.609 280.467 234.601 276.36 228.741Z" fill="#FFA800"/>
<path d="M380.712 236.602C384.887 236.992 389.073 236.864 393.259 237.205C397.308 237.536 401.307 238.304 405.256 239.246C409.228 240.194 413.132 241.53 416.704 243.538C418.484 244.539 420.207 245.748 421.722 247.121C423.178 248.441 424.117 250.295 425.096 251.988C425.691 253.016 424.566 254.018 423.595 253.367C421.806 252.166 419.772 251.393 417.864 250.398C416.26 249.562 414.564 248.846 412.885 248.174C409.247 246.719 405.359 245.731 401.538 244.886C397.705 244.038 393.908 243.335 390.186 242.045C386.695 240.835 383.586 239.099 380.498 237.07C380.257 236.911 380.477 236.58 380.712 236.602Z" fill="#FFA800"/>
<path d="M222.894 320.615C222.472 320.058 223.226 319.531 223.728 319.85C228.941 323.161 236.712 322.241 241.82 319.05C246.881 315.887 249.103 309.796 247.933 304.063C246.537 297.221 243.308 290.468 239.737 284.518C237.888 281.436 235.851 278.456 233.859 275.465C231.741 272.284 229.802 268.827 227.515 265.794C227.23 265.417 227.769 264.925 228.126 265.233C230.738 267.486 233.545 269.365 236.048 271.785C238.599 274.25 240.96 276.827 243.16 279.611C247.417 285 251.204 290.889 253.73 297.297C256.225 303.628 257.436 310.488 254.436 316.891C251.76 322.604 246.444 327.47 240.073 328.37C232.983 329.371 227.092 326.163 222.894 320.615Z" fill="#FFA800"/>
<path d="M179.902 209.401C178.401 207.382 177.134 205.222 175.99 202.983C174.89 200.829 173.834 198.647 172.994 196.376C172.134 194.053 171.762 191.471 171.462 189.017C170.861 184.113 170.937 179.158 171.931 174.313C172.431 171.879 173.043 169.462 174.216 167.258C175.644 164.576 177.718 162.134 179.539 159.714C179.815 159.348 180.421 159.646 180.342 160.081C179.441 165.036 178.883 170.084 178.255 175.081C177.703 179.477 177.62 184 178.118 188.404C178.601 192.674 179.263 197.223 180.56 201.324C181.226 203.433 182.041 205.497 182.949 207.514C183.818 209.443 185.383 211.511 185.758 213.581C185.863 214.162 185.174 214.561 184.686 214.344C182.793 213.505 181.108 211.023 179.902 209.401Z" fill="#FFA800"/>
<path d="M116.839 250.897C111.731 238.468 101.904 228.884 91.9678 220.215C86.5757 215.51 81.016 210.929 76.0281 205.784C73.6083 203.288 71.7034 200.226 69.8605 197.293C68.0021 194.335 66.2323 191.419 64.9149 188.175C64.7748 187.83 65.2377 187.656 65.4514 187.897C68.0373 190.805 70.6381 193.695 73.5864 196.242C76.4026 198.676 79.3249 200.896 82.0328 203.455C87.2739 208.408 92.7498 213.093 97.8709 218.176C102.546 222.817 106.852 227.82 110.432 233.363C112.095 235.937 113.602 238.629 114.861 241.423C116.237 244.476 116.854 247.495 117.429 250.765C117.49 251.118 116.965 251.204 116.839 250.897Z" fill="#FFA800"/>
<path d="M53.9089 207.09C51.5481 202.751 49.3945 198.3 47.4837 193.746C43.6746 184.666 41.0911 175.198 40.2436 165.376C40.1675 164.494 41.5207 164.139 41.792 165.029C44.5576 174.116 47.4878 183.195 51.0811 191.992C52.8722 196.379 54.876 200.682 57.1137 204.859C58.1859 206.86 59.1855 208.855 60.1606 210.905C61.1893 213.067 62.4862 215.387 63.1303 217.692C63.2505 218.122 62.7806 218.488 62.4087 218.199C58.8933 215.469 56.0119 210.955 53.9089 207.09Z" fill="#FFA800"/>
<path d="M38.1682 257.194C37.8573 255.683 38.483 253.504 38.692 251.964C38.9378 250.156 39.0133 248.399 38.8886 246.576C38.6464 243.051 37.5416 239.531 36.7244 236.105C35.8816 232.572 35.0232 229.109 33.5762 225.755C32.8711 224.121 31.934 222.624 31.1795 221.019C30.3501 219.255 29.6806 217.439 28.6401 215.784C28.3801 215.371 28.8065 214.725 29.2974 214.993C31.0661 215.961 32.888 216.869 34.4547 218.153C35.9933 219.414 37.2147 221.109 38.3423 222.738C40.773 226.251 42.8002 230.344 43.6544 234.556C44.512 238.782 43.9698 242.797 43.0904 246.971C42.6918 248.862 42.1976 250.755 41.6149 252.598C41.1189 254.168 40.3013 256.553 38.9443 257.555C38.6174 257.797 38.2389 257.539 38.1682 257.194Z" fill="#FFA800"/>
<path d="M431.246 336.253C427.736 361.278 414.058 376.484 407.758 379.533C363.496 400.946 325.056 383.918 294.788 385.031C248.486 386.733 161.717 397.023 117.434 383.394C100.089 378.056 28.0351 394.764 -6.84918 381.703C-37.4003 370.265 -32.3019 328.552 -32.3019 328.552C-32.3019 328.552 -22.5499 343.197 -7.20038 347.588C1.38495 350.044 19.798 343.581 19.6923 343.376C15.5726 334.977 19.5241 322.133 15.9664 313.508C18.0735 314.739 19.9716 316.257 21.6605 318.061C25.1993 320.91 28.7872 323.696 32.424 326.419C39.8554 331.737 48.0735 336.01 57.1646 337.582C63.5502 338.686 69.684 337.803 75.6659 335.352C78.2551 334.552 82.6271 331.535 84.1396 328.719C87.3731 340.325 91.8091 352.748 100.691 361.246C106.757 367.05 131.904 380.335 148.412 381.407C197.134 384.571 205.349 345.896 205.349 345.896C205.349 345.896 222.679 378.68 260.536 372.803C278.759 369.974 285.094 350.615 286.06 341.984C286.602 337.146 286.249 332.156 285.904 327.319C285.511 321.791 285.057 316.229 284.055 310.777C282.017 299.696 275.628 290.59 269.188 281.632C277.126 286.238 284.758 290.569 293.406 293.813C298.953 295.893 304.498 297.974 310.178 299.668C314.394 300.927 318.612 302.022 322.712 303.65C336.543 309.142 349.083 318.633 358.283 330.544C365.277 339.6 366.119 349.473 366.542 349.436C370.72 349.069 384.055 352.938 405.094 328.552C413.359 318.973 415.932 292.94 415.932 292.94C415.932 292.94 434.756 311.228 431.246 336.253Z" fill="#FF6610"/>
<path d="M423.916 328.086C421.553 345.166 416.074 363.222 402.26 373.539C394.197 379.561 384.143 382.256 374.214 383.902C365.159 385.403 355.834 386.134 346.834 384.329C342.188 383.397 337.701 381.805 333.091 380.711C328.122 379.532 323.034 378.938 317.951 378.459C297.517 376.532 276.549 376.471 256.894 382.381C271.275 377.388 283.503 366.484 290.104 352.767C296.706 339.05 297.597 322.69 292.527 308.337C309.66 314.308 323.873 328.143 330.302 345.11C331.802 335.932 330.79 326.356 327.405 317.694C341.048 329.308 355.409 342.03 359.945 359.364C378.826 361.811 398.026 353.687 412.668 341.517C419.286 336.017 423.916 328.086 423.916 328.086Z" fill="#FF6610"/>
<path d="M206.476 358.729C202.196 369.878 192.746 378.918 181.418 382.702C189.13 384.497 197.15 384.345 205.06 384.003C212.214 383.694 219.361 383.238 226.496 382.634C229.722 382.361 234.648 382.804 237.624 381.573C241.214 380.087 239.391 379.874 236.133 378.814C230.349 376.933 225.074 374.049 220.147 370.498C218.668 369.433 205.919 360.18 206.476 358.729Z" fill="#FF6610"/>
<path d="M75.4056 348.141C75.1054 352.337 71.0419 355.512 66.8766 356.099C62.7113 356.687 58.5335 355.259 54.6888 353.552C43.7791 348.709 33.9747 341.396 26.2227 332.319C27.2759 337.634 30.9953 342.57 30.1413 347.921C29.5062 351.898 26.3968 355.077 22.9291 357.126C16.7899 360.754 9.29721 361.601 2.2315 360.641C-4.83448 359.681 -11.559 357.03 -18.031 354.037C-14.9785 361.379 -8.95624 367.245 -1.99359 371.085C4.96905 374.925 12.8404 376.868 20.7322 377.839C28.5921 378.807 36.7297 378.822 44.2425 376.318C48.8414 374.785 53.1521 372.329 57.9164 371.433C65.2741 370.051 72.7232 372.529 80.0243 374.183C86.043 375.547 92.186 376.359 98.3518 376.612C106.2 376.934 103.588 374.212 98.8037 371.209C89.4586 365.343 82.288 356.608 75.4056 348.141Z" fill="#FF6610"/>
<g clip-path="url(#clip0_835_776)">
<path d="M194.675 248.183C353.149 248.183 481.618 376.876 481.618 535.626C481.618 694.376 353.149 823.068 194.675 823.068C36.201 823.068 -92.2676 694.376 -92.2676 535.626C-92.2676 376.876 36.201 248.183 194.675 248.183Z" fill="#FF7425"/>
<path d="M244.297 291.022C265.97 291.023 283.538 308.624 283.537 330.335C283.536 352.046 265.966 369.646 244.293 369.645C222.62 369.644 205.052 352.043 205.053 330.332C205.054 308.621 222.624 291.021 244.297 291.022Z" fill="white"/>
<mask id="mask0_835_776" style="mask-type:luminance" maskUnits="userSpaceOnUse" x="205" y="291" width="79" height="79">
<path d="M244.297 291.022C265.97 291.023 283.539 308.624 283.538 330.335C283.537 352.046 265.966 369.645 244.293 369.644C222.62 369.643 205.052 352.042 205.053 330.331C205.054 308.62 222.624 291.021 244.297 291.022Z" fill="white"/>
</mask>
<g mask="url(#mask0_835_776)">
<path d="M241.936 314.101C259.149 314.102 273.102 328.081 273.101 345.324C273.1 362.567 259.146 376.545 241.933 376.544C224.72 376.543 210.766 362.564 210.767 345.321C210.768 328.078 224.722 314.101 241.936 314.101Z" fill="#0B0B15"/>
</g>
<path d="M244.176 291.022C265.848 291.023 283.417 308.624 283.416 330.335C283.415 352.046 265.845 369.646 244.172 369.645C222.499 369.644 204.93 352.043 204.931 330.332C204.932 308.621 222.503 291.021 244.176 291.022Z" fill="white"/>
<mask id="mask1_835_776" style="mask-type:luminance" maskUnits="userSpaceOnUse" x="204" y="291" width="80" height="79">
<path d="M244.176 291.022C265.849 291.023 283.418 308.624 283.417 330.335C283.416 352.046 265.845 369.645 244.172 369.644C222.499 369.643 204.931 352.042 204.932 330.332C204.933 308.621 222.503 291.021 244.176 291.022Z" fill="white"/>
</mask>
<g mask="url(#mask1_835_776)">
<path d="M240.476 314.101C257.889 314.102 272.004 328.243 272.003 345.686C272.002 363.128 257.886 377.268 240.473 377.267C223.061 377.266 208.946 363.125 208.947 345.683C208.948 328.24 223.064 314.1 240.476 314.101Z" fill="#0B0B15"/>
</g>
<path d="M145.058 291.022C166.731 291.023 184.3 308.624 184.299 330.335C184.298 352.046 166.728 369.646 145.055 369.645C123.382 369.644 105.813 352.043 105.814 330.332C105.815 308.621 123.385 291.021 145.058 291.022Z" fill="white"/>
<mask id="mask2_835_776" style="mask-type:luminance" maskUnits="userSpaceOnUse" x="105" y="291" width="80" height="79">
<path d="M145.057 291.022C166.73 291.023 184.299 308.624 184.298 330.335C184.297 352.046 166.726 369.645 145.053 369.644C123.38 369.643 105.811 352.042 105.812 330.332C105.813 308.621 123.384 291.021 145.057 291.022Z" fill="white"/>
</mask>
<g mask="url(#mask2_835_776)">
<path d="M148.756 314.102C166.168 314.102 180.283 328.243 180.282 345.686C180.281 363.129 166.165 377.268 148.753 377.268C131.34 377.267 117.225 363.126 117.226 345.683C117.227 328.24 131.343 314.101 148.756 314.102Z" fill="#0B0B15"/>
</g>
<path d="M204.525 386.847C204.205 396.345 198.883 403.874 192.638 403.663C186.393 403.452 181.59 395.581 181.909 386.083C182.229 376.585 187.551 369.056 193.796 369.267C200.041 369.478 204.844 377.349 204.525 386.847Z" fill="#0A0B15"/>
</g>
<path d="M-246.759 545.182C-261.893 553.391 -271.904 568.774 -276.646 585.325C-289.373 629.743 -264.478 692.507 -225.659 702.512C-186.516 712.6 -149.835 704.091 -116.271 704.091C-84.1602 704.091 -47.4145 711.413 -17.143 710.41C46.6961 708.296 65.6049 697.069 88.692 696.72C111.532 696.374 135.052 707.118 177.917 701.304C207.838 697.246 230.064 668.041 230.064 623.707C230.064 597.727 217.182 574.473 205.617 561.655C211.689 579.873 207.94 601.05 195.983 616.076C202.467 604.435 197.877 589.666 190.819 578.363C183.761 567.06 174.266 556.998 170.11 544.337C164.373 526.861 169.949 507.503 179.05 491.519C163.97 496.792 150.049 506.242 141.216 519.554C132.384 532.866 129.132 550.214 134.406 565.294C136.229 570.505 139.053 575.675 138.535 581.171C138.016 586.667 131.875 591.952 127.16 589.081C125.41 588.015 124.349 586.133 123.416 584.309C117.33 572.415 113.349 559.028 114.8 545.746C116.218 532.76 122.653 520.913 129.318 509.677C135.982 498.441 143.112 487.173 146.18 474.474C149.248 461.775 147.498 447.061 138.254 437.83C139.875 454.664 129.819 470.614 117.429 482.125C105.04 493.637 69.647 518.177 51.5498 552.268C26.7829 598.924 59.2398 636.047 41.5036 638.886C23.7674 641.726 2.70799 589.654 21.9123 558.507C29.4402 546.298 37.9917 535.247 52.9886 529.117C32.9082 525.908 13.9615 540.009 1.69914 556.231C-10.5632 572.453 -19.0375 591.602 -33.4211 605.977C-36.4467 609.001 -39.8686 611.872 -44.0058 612.961C-48.1433 614.05 -53.1365 612.892 -55.41 609.267C-56.85 606.971 -57.0043 604.096 -56.7641 601.396C-55.0082 581.641 -36.151 568.806 -21.4573 555.486C-7.01351 542.393 4.9424 526.021 10.3037 507.278C15.665 488.535 13.8567 467.297 3.04109 451.078C-2.56004 442.679 -10.4146 435.699 -14.4141 426.429C-20.7783 411.679 -15.7848 394.001 -5.98839 381.269C3.8083 368.538 17.7135 359.729 31.3196 351.188C8.55726 347.386 -15.7024 353.661 -33.7676 368.021C-51.8331 382.381 -63.4176 404.6 -64.849 427.634C-65.6905 441.174 -63.2565 455.229 -67.7301 468.037C-68.9519 454.665 -74.4562 441.718 -83.2369 431.559C-74.0997 475.169 -97.1821 523.505 -136.841 543.812C-149.325 550.205 -163.152 554.056 -174.72 561.985C-187.577 570.797 -196.745 584.067 -203.853 597.939C-202.676 581.048 -189.79 567.733 -178.966 554.713C-168.142 541.694 -158.279 524.463 -164.258 508.622C-172.053 521.918 -187.562 528.57 -202.516 532.302C-217.47 536.033 -233.211 537.834 -246.759 545.182Z" fill="#FFC93F"/>
<path d="M-207.272 577.052C-203.04 567.697 -197.451 560.079 -190.792 552.328C-186.197 546.979 -179.268 540.673 -178.191 533.858C-186.6 540.304 -194.554 546.484 -204.357 550.843C-218.715 557.229 -233.627 557.16 -246.286 567.766C-263.207 581.943 -272.098 617.775 -267.783 639.575C-263.468 661.375 -242.757 686.279 -230.398 693.034C-211.481 703.371 -161.384 701.632 -139.947 699.352C-100.338 695.14 -67.7325 704.558 -37.4648 705.671C8.83708 707.373 23.524 703.463 69.1033 695.14C124.502 685.024 180.234 713.779 207.839 677.833C230.065 648.892 224.099 609.373 219.297 597.569C211.424 621.346 191.602 629.39 191.602 629.39C191.602 629.39 191.161 604.452 182.93 587.796C169.979 561.588 148.139 546.424 157.544 518.596C149.513 530.886 147.088 545.078 147.925 559.63C148.35 567.031 153.637 579.341 151.748 587.082C149.196 597.546 137.501 602.296 127.302 601.827C104.331 600.771 97.5589 576.249 99.6941 556.704C102.257 533.251 118.642 513.993 124.492 491.579C118.944 501.815 111.864 509.501 102.823 516.781C82.1199 533.45 68.8981 551.64 63.3678 578.5C60.7685 591.125 61.796 602.638 63.151 615.315C64.3156 626.21 66.4804 636.46 62.5114 647.292C55.8656 665.428 38.244 659.311 24.3128 652.755C6.99412 644.604 -0.856248 628.47 -0.950426 609.53C-0.989213 601.688 0.581923 593.447 2.25166 585.848C4.66612 574.859 12.0768 566.531 15.0923 556.235C4.48402 566.756 -0.457384 582.457 -7.74132 595.199C-16.3716 610.296 -29.8741 630.958 -45.2858 640.013C-72.2247 655.839 -94.0489 626.549 -83.9405 602.642C-76.4528 584.932 -61.2486 571.466 -47.8442 558.287C-31.6007 542.317 -8.36107 520.662 -4.60732 496.795C-0.784868 472.49 -20.4668 459.833 -31.1222 440.981C-39.324 426.47 -37.3144 411.109 -37.41 395.001C-48.9259 416.518 -49.1817 440.467 -48.9078 464.161C-48.6798 483.886 -51.4283 506.83 -69.6788 518.384C-67.6795 508.018 -62.9045 495.885 -70.1946 486.353C-65.8262 516.181 -100.46 553.815 -126.569 564.001C-143.542 570.623 -160.488 576.01 -175.697 586.503C-186.548 593.989 -201.347 609.635 -202.696 623.492C-211.944 608.838 -214.422 592.857 -207.272 577.052Z" fill="#FFA800"/>
<path d="M-236.19 680.923C-222.867 692.507 -189.987 698.891 -165.631 696.193C-125.754 691.776 -110.07 694.274 -79.8027 695.387C-33.5005 697.088 18.2444 703.725 62.5274 690.095C102.745 677.718 170.573 702.007 195.684 685.023C220.795 668.041 221.111 623.001 216.687 618.789C192.427 648.891 175.284 636.869 175.284 636.869C175.284 636.869 179.79 623.706 176.202 603.895C174.937 596.911 170.783 590.798 169.544 583.775C161.555 603.534 142.08 626.867 118.403 620.061C105.926 616.475 95.9347 606.274 90.3413 594.827C85.0321 583.962 86.2618 573.767 87.2716 562.058C76.2164 588.052 87.9958 614.952 82.8761 641.343C79.2479 660.045 59.9317 671.998 42.4736 676.258C27.488 679.915 4.4633 675.328 -8.2376 665.988C-17.7663 658.981 -21.2793 642.789 -16.52 631.828C-28.6666 646.294 -49.5113 662.814 -69.3951 662.849C-94.1994 662.893 -98.2534 630.382 -93.6288 612.433C-87.2015 587.486 -71.4782 574.933 -53.9156 557.577C-37.9723 541.821 -24.188 511.149 -29.5664 480.764C-33.4386 507.994 -55.9738 541.331 -71.6088 557.416C-84.2742 570.446 -99.81 576.715 -116.475 583.649C-137.275 592.303 -157.918 595.496 -175.827 610.375C-188.987 621.308 -192.278 631.235 -193.789 647.772C-208.22 638.484 -222.076 625.089 -225.921 607.722C-228.518 595.995 -228.624 578.088 -220.894 568.325C-233.179 578.642 -244.077 590.154 -251.219 605.232C-268.865 642.484 -249.514 669.339 -236.19 680.923Z" fill="#FFA800"/>
<path d="M185.235 576.977C183.994 574.569 182.969 571.805 181.385 569.615C179.641 567.207 177.683 564.93 175.838 562.598C172.418 558.273 169.382 553.944 167.155 548.882C163.268 540.046 162.377 530.047 163.259 520.503C163.275 520.327 163.03 520.279 162.964 520.437C159.078 529.824 159.648 540.055 163.048 549.513C164.932 554.75 168.099 559.348 171.518 563.691C173.466 566.167 175.433 568.63 177.407 571.085C179.414 573.583 182.119 575.468 184.557 577.54C184.902 577.834 185.434 577.364 185.235 576.977Z" fill="#FFA800"/>
<path d="M211.09 604.011C211.434 603.496 211.743 603.049 212.176 602.608C212.684 602.093 213.214 601.608 213.533 600.952C214.54 598.881 215.274 596.483 215.887 594.261C216.998 590.239 217.156 585.389 215.032 581.685C214.614 580.956 213.293 581.196 213.514 582.145C213.944 583.993 213.94 585.927 213.622 587.793C213.296 589.712 212.495 591.465 211.859 593.291C211.174 595.259 210.244 597.141 209.561 599.106C209.129 600.353 209.431 601.68 209.043 602.95C208.678 604.145 208.228 605.309 207.86 606.502C207.724 606.941 208.263 607.409 208.641 607.052C209.603 606.147 210.358 605.106 211.09 604.011Z" fill="#FFA800"/>
<path d="M195.681 567.598C195.237 564.743 193.272 562.141 192.118 559.516C190.818 556.558 189.579 553.555 188.237 550.588C185.564 544.681 182.66 538.909 181.034 532.589C178.25 521.767 177.681 510.825 182.493 500.45C182.57 500.285 182.327 500.183 182.225 500.31C175.054 509.266 172.487 522.084 174.513 533.301C175.725 540.01 178.138 546.74 181.673 552.582C183.522 555.639 185.583 558.513 188.177 560.947C190.567 563.189 192.318 566.382 195.327 567.893C195.513 567.986 195.709 567.778 195.681 567.598Z" fill="#FFA800"/>
<path d="M102.842 483.63C108.617 478.449 113.754 472.127 118.026 465.669C120.201 462.382 122.153 458.95 123.917 455.427C125.774 451.72 126.914 447.971 128.204 444.051C128.319 443.701 127.79 443.38 127.6 443.738C125.726 447.284 123.348 450.633 121.11 453.972C118.835 457.368 116.332 460.602 113.653 463.688C108.228 469.937 101.905 475.095 95.2069 479.916C84.7694 487.431 67.725 495.359 69.1916 510.651C69.2191 510.937 69.5881 510.965 69.7423 510.776C78.8988 499.498 92.1914 493.185 102.842 483.63Z" fill="#FFA800"/>
<path d="M32.0755 472.262C32.7782 468.981 33.2351 465.727 33.1418 462.366C32.9399 455.103 30.9423 448.502 27.1119 442.322C22.5942 435.032 16.0825 429.37 11.2415 422.33C6.99974 416.162 4.46333 409.363 3.64787 401.942C2.72609 393.554 5.75258 386.781 10.2469 379.916C10.4201 379.652 10.1355 379.236 9.82435 379.408C4.23741 382.501 0.881606 388.986 -0.666154 394.99C-2.57958 402.414 -2.01076 409.51 0.406661 416.759C3.00383 424.547 7.88246 431.064 12.9252 437.426C15.5972 440.798 18.4206 444.164 20.4708 447.964C22.1246 451.028 23.2355 454.271 24.2574 457.588C25.3447 461.119 25.8745 464.805 26.175 468.48C26.4913 472.343 25.4342 476.246 26.1226 480.093C26.2686 480.91 27.3269 481.385 27.9798 480.784C30.4064 478.552 31.4043 475.393 32.0755 472.262Z" fill="#FFA800"/>
<path d="M-118.977 516.367C-113.193 511.061 -108.787 504.299 -104.994 497.475C-101.202 490.653 -98.1936 483.634 -96.1617 476.092C-95.1626 472.383 -94.4401 468.597 -94.1274 464.766C-93.8118 460.899 -94.4348 457.295 -94.6151 453.468C-94.6527 452.676 -95.96 452.572 -96.1563 453.326C-97.0527 456.772 -98.7209 460.095 -99.8935 463.476C-101.094 466.937 -102.307 470.376 -103.592 473.812C-106.024 480.31 -108.965 486.763 -112.426 492.779C-115.981 498.959 -120.41 504.442 -124.45 510.289C-126.514 513.275 -128.572 516.273 -130.629 519.25C-132.727 522.287 -135.745 524.89 -138.265 527.555C-138.834 528.158 -138.301 529.342 -137.425 528.899C-133.953 527.145 -130.994 524.795 -127.711 522.76C-124.553 520.801 -121.745 518.906 -118.977 516.367Z" fill="#FFA800"/>
<path d="M-187.357 511.094C-187.057 510.68 -187.529 510.191 -187.967 510.36C-189.461 510.938 -191.12 510.817 -192.624 511.389C-194.3 512.025 -195.954 512.711 -197.638 513.33C-200.773 514.484 -203.913 515.368 -207.167 516.118C-213.855 517.66 -220.526 518.998 -227.295 520.153C-240.706 522.442 -255.235 524.903 -265.412 534.731C-268.981 538.177 -271.464 541.88 -273.482 546.389C-275.356 550.575 -278.063 554.806 -278.459 559.484C-278.504 560.019 -277.871 560.159 -277.56 559.813C-274.733 556.662 -273.074 552.551 -270.306 549.326C-267.706 546.296 -264.223 543.446 -261.007 541.093C-255.914 537.368 -249.886 534.895 -243.948 532.871C-231.265 528.548 -217.571 527.919 -204.951 523.421C-201.574 522.217 -198.225 520.689 -195.13 518.877C-193.488 517.916 -191.854 516.794 -190.417 515.542C-188.977 514.285 -188.446 512.596 -187.357 511.094Z" fill="#FFA800"/>
<path d="M-96.3988 532.062C-94.1502 528.854 -93.3815 525.244 -91.7751 521.762C-90.3577 518.69 -88.8597 515.975 -88.5263 512.548C-88.5026 512.303 -88.8002 512.234 -88.9411 512.397C-91.2398 515.043 -92.6812 518.423 -95.1132 520.931C-97.4234 523.314 -100.315 525.087 -102.634 527.49C-107.453 532.487 -112.238 537.213 -117.883 541.308C-123.851 545.638 -129.992 549.748 -136.413 553.38C-139.527 555.141 -142.665 556.871 -145.813 558.571C-147.455 559.459 -149.124 560.3 -150.741 561.233C-152.543 562.271 -154.082 563.539 -155.843 564.622C-156.214 564.85 -156.109 565.521 -155.601 565.417C-153.495 564.984 -151.435 564.837 -149.346 564.264C-147.695 563.812 -146.072 563.258 -144.448 562.72C-140.601 561.447 -136.822 560.054 -133.096 558.46C-125.866 555.368 -118.826 551.816 -112.477 547.14C-106.762 542.931 -100.506 537.922 -96.3988 532.062Z" fill="#FFA800"/>
<path d="M-200.751 539.923C-204.926 540.313 -209.112 540.185 -213.298 540.526C-217.347 540.857 -221.346 541.625 -225.295 542.567C-229.267 543.515 -233.171 544.852 -236.743 546.859C-238.523 547.86 -240.246 549.069 -241.761 550.442C-243.217 551.762 -244.156 553.616 -245.135 555.31C-245.73 556.337 -244.605 557.34 -243.634 556.688C-241.845 555.487 -239.811 554.715 -237.903 553.719C-236.299 552.883 -234.603 552.167 -232.924 551.496C-229.286 550.04 -225.398 549.053 -221.577 548.207C-217.744 547.359 -213.947 546.656 -210.225 545.366C-206.734 544.156 -203.625 542.421 -200.537 540.391C-200.296 540.232 -200.516 539.901 -200.751 539.923Z" fill="#FFA800"/>
<path d="M-42.933 623.937C-42.511 623.379 -43.2649 622.852 -43.7668 623.171C-48.9801 626.483 -56.7511 625.562 -61.8586 622.371C-66.9197 619.209 -69.1417 613.117 -67.972 607.385C-66.5762 600.543 -63.3474 593.789 -59.7764 587.839C-57.9269 584.757 -55.89 581.778 -53.8984 578.786C-51.7803 575.605 -49.8414 572.148 -47.554 569.115C-47.2692 568.738 -47.8084 568.246 -48.1655 568.554C-50.7771 570.808 -53.5836 572.687 -56.0872 575.106C-58.6382 577.571 -60.9987 580.148 -63.1988 582.932C-67.4556 588.321 -71.2431 594.21 -73.7686 600.619C-76.2642 606.95 -77.4753 613.809 -74.4754 620.212C-71.7989 625.926 -66.4826 630.791 -60.1125 631.691C-53.0216 632.693 -47.1312 629.485 -42.933 623.937Z" fill="#FFA800"/>
<path d="M0.0586991 512.722C1.56026 510.703 2.82731 508.544 3.97087 506.304C5.07121 504.15 6.12712 501.969 6.96718 499.698C7.82677 497.375 8.19868 494.792 8.49922 492.338C9.10002 487.434 9.02394 482.479 8.02992 477.634C7.53038 475.2 6.91774 472.784 5.74455 470.579C4.3173 467.897 2.24281 465.455 0.421462 463.036C0.146101 462.67 -0.460069 462.967 -0.380998 463.402C0.520339 468.358 1.0782 473.406 1.70595 478.402C2.25819 482.799 2.3408 487.321 1.84245 491.726C1.36012 495.996 0.697707 500.544 -0.598924 504.646C-1.26518 506.754 -2.08006 508.819 -2.98763 510.835C-3.85671 512.764 -5.42223 514.832 -5.7971 516.902C-5.90221 517.483 -5.21315 517.882 -4.72487 517.666C-2.83214 516.826 -1.14732 514.344 0.0586991 512.722Z" fill="#FFA800"/>
<path d="M63.1223 554.218C68.2301 541.789 78.057 532.205 87.9931 523.536C93.3852 518.831 98.945 514.25 103.933 509.105C106.353 506.61 108.258 503.547 110.1 500.614C111.959 497.656 113.729 494.741 115.046 491.496C115.186 491.152 114.723 490.977 114.509 491.218C111.924 494.126 109.323 497.016 106.375 499.564C103.558 501.997 100.636 504.217 97.9281 506.776C92.687 511.73 87.2112 516.414 82.09 521.497C77.4145 526.139 73.1094 531.141 69.5285 536.685C67.8662 539.258 66.359 541.95 65.0996 544.745C63.7243 547.797 63.1074 550.816 62.5324 554.086C62.4705 554.439 62.9958 554.526 63.1223 554.218Z" fill="#FFA800"/>
<path d="M126.052 510.411C128.413 506.073 130.566 501.622 132.477 497.067C136.286 487.987 138.87 478.519 139.717 468.697C139.793 467.815 138.44 467.46 138.169 468.351C135.403 477.437 132.473 486.517 128.88 495.314C127.089 499.7 125.085 504.004 122.847 508.18C121.775 510.182 120.775 512.177 119.8 514.226C118.772 516.388 117.475 518.709 116.831 521.013C116.71 521.444 117.18 521.81 117.552 521.52C121.068 518.79 123.949 514.276 126.052 510.411Z" fill="#FFA800"/>
<path d="M141.793 560.515C142.104 559.005 141.478 556.825 141.269 555.286C141.023 553.478 140.948 551.72 141.072 549.897C141.315 546.373 142.419 542.852 143.237 539.427C144.079 535.893 144.938 532.431 146.385 529.077C147.09 527.442 148.027 525.945 148.781 524.34C149.611 522.576 150.28 520.761 151.321 519.105C151.581 518.692 151.154 518.046 150.664 518.315C148.895 519.282 147.073 520.19 145.506 521.474C143.968 522.735 142.746 524.431 141.619 526.059C139.188 529.572 137.161 533.665 136.306 537.877C135.449 542.103 135.991 546.118 136.871 550.292C137.269 552.183 137.763 554.076 138.346 555.919C138.842 557.489 139.66 559.874 141.017 560.877C141.344 561.118 141.722 560.86 141.793 560.515Z" fill="#FFA800"/>
<path d="M-251.285 639.575C-247.775 664.6 -234.098 679.806 -227.797 682.854C-183.535 704.267 -145.095 687.24 -114.827 688.353C-68.5252 690.054 18.2441 700.345 62.5271 686.715C79.8719 681.377 151.926 698.085 186.81 685.024C217.361 673.586 212.263 631.873 212.263 631.873C212.263 631.873 202.511 646.518 187.161 650.91C178.576 653.366 160.163 646.902 160.269 646.697C164.388 638.299 160.437 625.454 163.995 616.829C161.887 618.06 159.989 619.578 158.3 621.382C154.762 624.232 151.174 627.018 147.537 629.74C140.106 635.058 131.887 639.332 122.796 640.903C116.411 642.007 110.277 641.124 104.295 638.673C101.706 637.873 97.3338 634.857 95.8213 632.04C92.5878 643.646 88.1519 656.069 79.2699 664.568C73.2044 670.371 48.0573 683.656 31.5485 684.728C-17.1726 687.893 -25.3878 649.218 -25.3878 649.218C-25.3878 649.218 -42.7177 682.002 -80.5746 676.125C-98.7976 673.295 -105.133 653.937 -106.099 645.305C-106.641 640.467 -106.288 635.477 -105.944 630.641C-105.55 625.112 -105.096 619.55 -104.094 614.098C-102.056 603.018 -95.6666 593.911 -89.2274 584.953C-97.1646 589.56 -104.797 593.891 -113.445 597.134C-118.992 599.214 -124.537 601.295 -130.217 602.99C-134.433 604.248 -138.651 605.343 -142.751 606.971C-156.582 612.463 -169.122 621.954 -178.322 633.865C-185.316 642.921 -186.158 652.795 -186.581 652.758C-190.759 652.39 -204.094 656.26 -225.133 631.874C-233.398 622.294 -235.971 596.261 -235.971 596.261C-235.971 596.261 -254.795 614.549 -251.285 639.575Z" fill="#FF6610"/>
<path d="M-243.955 631.408C-241.592 648.487 -236.113 666.543 -222.299 676.86C-214.236 682.882 -204.182 685.577 -194.253 687.223C-185.198 688.725 -175.873 689.455 -166.873 687.65C-162.227 686.719 -157.74 685.126 -153.13 684.032C-148.161 682.853 -143.074 682.26 -137.99 681.78C-117.557 679.854 -96.5881 679.792 -76.9334 685.702C-91.3141 680.709 -103.542 669.805 -110.143 656.088C-116.745 642.371 -117.636 626.012 -112.566 611.658C-129.699 617.629 -143.912 631.465 -150.341 648.431C-151.841 639.253 -150.829 629.677 -147.444 621.015C-161.087 632.63 -175.448 645.351 -179.984 662.685C-198.865 665.132 -218.065 657.008 -232.707 644.838C-239.325 639.338 -243.955 631.408 -243.955 631.408Z" fill="#FF6610"/>
<path d="M-26.5154 662.05C-22.2348 673.199 -12.7849 682.24 -1.45735 686.023C-9.16945 687.818 -17.1886 687.666 -25.0994 687.325C-32.253 687.016 -39.4001 686.559 -46.5348 685.955C-49.7612 685.682 -54.6875 686.125 -57.6634 684.894C-61.2534 683.409 -59.4306 683.195 -56.1725 682.135C-50.3881 680.254 -45.1129 677.371 -40.1857 673.82C-38.7072 672.754 -25.9581 663.501 -26.5154 662.05Z" fill="#FF6610"/>
<path d="M104.555 651.462C104.856 655.658 108.919 658.833 113.084 659.421C117.25 660.008 121.427 658.581 125.272 656.874C136.182 652.031 145.986 644.717 153.738 635.641C152.685 640.955 148.966 645.892 149.82 651.242C150.455 655.22 153.564 658.398 157.032 660.447C163.171 664.075 170.664 664.922 177.729 663.962C184.795 663.002 191.52 660.352 197.992 657.358C194.939 664.701 188.917 670.566 181.955 674.406C174.992 678.246 167.121 680.189 159.229 681.161C151.369 682.128 143.231 682.143 135.718 679.639C131.12 678.106 126.809 675.65 122.045 674.755C114.687 673.372 107.238 675.85 99.9366 677.504C93.918 678.868 87.7749 679.681 81.6091 679.933C73.7611 680.255 76.3731 677.533 81.1573 674.53C90.5024 668.664 97.6729 659.929 104.555 651.462Z" fill="#FF6610"/>
<path d="M289.885 458.907C273.387 467.855 262.474 484.624 257.304 502.667C243.431 551.087 270.569 619.507 312.886 630.413C355.557 641.411 395.543 632.135 432.132 632.135C467.136 632.135 507.193 640.116 540.192 639.023C609.784 636.718 630.397 624.48 655.564 624.099C680.463 623.723 706.102 635.435 752.83 629.097C785.448 624.673 809.676 592.836 809.676 544.507C809.676 516.186 795.633 490.836 783.026 476.864C789.645 496.723 785.559 519.809 772.523 536.188C779.592 523.498 774.588 507.399 766.895 495.077C759.201 482.755 748.85 471.786 744.319 457.985C738.065 438.934 744.144 417.832 754.065 400.407C737.626 406.156 722.451 416.457 712.822 430.969C703.194 445.481 699.648 464.392 705.398 480.831C707.385 486.511 710.464 492.147 709.899 498.138C709.333 504.129 702.638 509.891 697.499 506.761C695.591 505.599 694.435 503.547 693.417 501.559C686.783 488.593 682.443 474 684.025 459.521C685.571 445.364 692.586 432.45 699.851 420.202C707.116 407.953 714.888 395.669 718.233 381.827C721.578 367.983 719.669 351.943 709.593 341.88C711.36 360.232 700.397 377.618 686.891 390.167C673.385 402.717 634.803 429.468 615.075 466.631C588.077 517.491 623.458 557.959 604.124 561.054C584.789 564.15 561.832 507.386 582.767 473.432C590.973 460.123 600.295 448.075 616.644 441.393C594.754 437.896 574.1 453.266 560.732 470.95C547.365 488.635 538.127 509.51 522.447 525.179C519.149 528.476 515.419 531.606 510.909 532.793C506.399 533.98 500.955 532.717 498.477 528.766C496.907 526.263 496.739 523.129 497.001 520.186C498.915 498.651 519.472 484.659 535.489 470.139C551.235 455.866 564.268 438.018 570.112 417.586C575.957 397.154 573.986 374.003 562.195 356.322C556.089 347.166 547.527 339.557 543.167 329.452C536.229 313.373 541.673 294.101 552.352 280.223C563.032 266.344 578.19 256.741 593.022 247.431C568.209 243.287 541.763 250.126 522.07 265.781C502.376 281.435 489.748 305.656 488.187 330.765C487.27 345.525 489.923 360.848 485.047 374.809C483.715 360.233 477.714 346.119 468.142 335.044C478.103 382.584 452.941 435.276 409.708 457.413C396.099 464.381 381.026 468.58 368.415 477.224C354.4 486.83 344.406 501.295 336.658 516.417C337.94 498.004 351.987 483.489 363.787 469.296C375.586 455.104 386.338 436.32 379.82 419.052C371.323 433.546 354.417 440.797 338.115 444.865C321.814 448.933 304.654 450.896 289.885 458.907Z" fill="#FFC93F"/>
<path d="M332.93 493.648C337.543 483.45 343.637 475.145 350.895 466.696C355.904 460.865 363.458 453.991 364.632 446.562C355.465 453.589 346.795 460.325 336.108 465.077C320.456 472.038 304.2 471.964 290.401 483.525C271.955 498.98 262.262 538.04 266.966 561.805C271.67 585.569 294.247 612.718 307.721 620.081C328.342 631.35 382.953 629.455 406.322 626.969C449.5 622.377 485.044 632.645 518.039 633.858C568.514 635.713 584.524 631.45 634.211 622.378C694.601 611.35 755.356 642.696 785.449 603.511C809.677 571.962 803.174 528.882 797.938 516.013C789.357 541.933 767.748 550.702 767.748 550.702C767.748 550.702 767.267 523.517 758.295 505.36C744.177 476.791 720.369 460.26 730.621 429.925C721.867 443.322 719.222 458.793 720.135 474.656C720.598 482.725 726.362 496.143 724.303 504.582C721.52 515.989 708.772 521.167 697.654 520.656C672.613 519.505 665.23 492.773 667.558 471.467C670.351 445.9 688.213 424.906 694.59 400.473C688.542 411.631 680.825 420.01 670.969 427.945C648.4 446.117 633.987 465.946 627.958 495.226C625.125 508.99 626.245 521.539 627.722 535.359C628.991 547.236 631.351 558.41 627.025 570.218C619.78 589.987 600.57 583.32 585.384 576.173C566.505 567.288 557.947 549.699 557.844 529.052C557.802 520.504 559.515 511.521 561.335 503.237C563.967 491.257 572.045 482.179 575.333 470.955C563.768 482.425 558.382 499.541 550.441 513.431C541.033 529.888 526.314 552.411 509.513 562.282C480.147 579.534 456.356 547.605 467.376 521.544C475.538 502.238 492.112 487.559 506.725 473.192C524.432 455.783 549.766 432.177 553.858 406.159C558.025 379.663 536.569 365.866 524.953 345.315C516.012 329.497 518.203 312.751 518.099 295.191C505.545 318.647 505.267 344.755 505.565 370.585C505.814 392.086 502.818 417.098 482.922 429.693C485.102 418.393 490.307 405.167 482.36 394.776C487.122 427.291 449.368 468.317 420.905 479.421C402.403 486.64 383.931 492.512 367.35 503.951C355.522 512.111 339.389 529.167 337.919 544.272C327.837 528.298 325.136 510.877 332.93 493.648Z" fill="#FFA800"/>
<path d="M301.406 606.879C315.93 619.507 351.773 626.466 378.323 623.525C421.794 618.71 438.891 621.434 471.886 622.646C522.361 624.501 578.769 631.736 627.042 616.878C670.884 603.385 744.824 629.863 772.198 611.349C799.572 592.836 799.917 543.738 795.094 539.146C768.647 571.961 749.96 558.855 749.96 558.855C749.96 558.855 754.871 544.506 750.96 522.91C749.581 515.297 745.053 508.633 743.702 500.976C734.994 522.517 713.763 547.952 687.953 540.533C674.352 536.624 663.46 525.503 657.362 513.025C651.575 501.181 652.915 490.067 654.016 477.303C641.965 505.64 654.806 534.964 649.225 563.733C645.269 584.12 624.213 597.15 605.181 601.794C588.845 605.78 563.746 600.78 549.9 590.599C539.513 582.96 535.683 565.308 540.871 553.361C527.63 569.129 504.907 587.138 483.232 587.177C456.192 587.224 451.773 551.783 456.814 532.217C463.821 505.023 480.961 491.338 500.106 472.418C517.486 455.243 532.513 421.807 526.649 388.683C522.428 418.367 497.862 454.708 480.818 472.243C467.012 486.446 450.076 493.28 431.909 500.839C409.235 510.274 386.732 513.754 367.209 529.973C352.863 541.892 349.275 552.714 347.628 570.741C331.897 560.616 316.793 546.014 312.6 527.082C309.769 514.299 309.654 494.777 318.081 484.134C304.689 495.381 292.808 507.931 285.023 524.368C265.787 564.977 286.882 594.251 301.406 606.879Z" fill="#FFA800"/>
<path d="M760.807 493.566C759.454 490.941 758.337 487.928 756.61 485.541C754.709 482.916 752.575 480.434 750.564 477.891C746.835 473.177 743.526 468.457 741.098 462.94C736.86 453.308 735.89 442.407 736.851 432.003C736.869 431.812 736.601 431.759 736.529 431.931C732.293 442.165 732.915 453.317 736.621 463.627C738.674 469.336 742.127 474.349 745.854 479.083C747.978 481.782 750.122 484.467 752.274 487.144C754.462 489.866 757.411 491.921 760.068 494.18C760.445 494.501 761.024 493.988 760.807 493.566Z" fill="#FFA800"/>
<path d="M788.992 523.036C789.368 522.475 789.704 521.987 790.176 521.507C790.729 520.945 791.307 520.417 791.655 519.701C792.753 517.444 793.553 514.83 794.222 512.408C795.433 508.024 795.604 502.736 793.289 498.698C792.834 497.903 791.394 498.165 791.635 499.2C792.103 501.214 792.099 503.323 791.753 505.357C791.397 507.449 790.523 509.36 789.831 511.35C789.083 513.496 788.07 515.547 787.326 517.689C786.854 519.049 787.183 520.495 786.761 521.88C786.363 523.182 785.873 524.451 785.471 525.752C785.323 526.23 785.91 526.74 786.323 526.351C787.371 525.364 788.194 524.23 788.992 523.036Z" fill="#FFA800"/>
<path d="M772.195 483.342C771.71 480.229 769.569 477.393 768.311 474.531C766.893 471.307 765.542 468.033 764.08 464.8C761.166 458.36 758 452.068 756.227 445.178C753.192 433.381 752.573 421.453 757.819 410.143C757.902 409.964 757.638 409.852 757.526 409.991C749.708 419.754 746.911 433.727 749.119 445.955C750.44 453.268 753.071 460.604 756.924 466.973C758.94 470.306 761.186 473.438 764.015 476.092C766.62 478.536 768.529 482.016 771.809 483.663C772.012 483.765 772.225 483.538 772.195 483.342Z" fill="#FFA800"/>
<path d="M670.99 391.807C677.285 386.16 682.885 379.268 687.542 372.228C689.912 368.645 692.04 364.903 693.964 361.063C695.988 357.022 697.231 352.935 698.637 348.662C698.762 348.28 698.185 347.931 697.979 348.321C695.936 352.186 693.343 355.837 690.904 359.477C688.423 363.178 685.695 366.705 682.774 370.069C676.86 376.881 669.968 382.503 662.666 387.759C651.288 395.951 632.708 404.593 634.307 421.264C634.337 421.575 634.739 421.606 634.907 421.399C644.889 409.106 659.379 402.223 670.99 391.807Z" fill="#FFA800"/>
<path d="M593.846 379.415C594.612 375.838 595.11 372.291 595.008 368.628C594.788 360.71 592.611 353.514 588.435 346.777C583.51 338.83 576.412 332.658 571.135 324.984C566.511 318.259 563.746 310.848 562.857 302.758C561.852 293.614 565.151 286.231 570.05 278.748C570.239 278.46 569.929 278.006 569.59 278.194C563.499 281.565 559.841 288.635 558.154 295.18C556.068 303.273 556.688 311.008 559.323 318.911C562.155 327.401 567.473 334.504 572.97 341.44C575.883 345.115 578.961 348.785 581.196 352.927C582.998 356.268 584.21 359.803 585.323 363.419C586.509 367.268 587.086 371.286 587.414 375.293C587.759 379.503 586.606 383.758 587.357 387.952C587.516 388.842 588.67 389.36 589.381 388.705C592.027 386.272 593.114 382.829 593.846 379.415Z" fill="#FFA800"/>
<path d="M429.182 427.494C435.487 421.711 440.29 414.339 444.425 406.9C448.559 399.463 451.838 391.812 454.053 383.59C455.142 379.547 455.93 375.42 456.271 371.244C456.615 367.028 455.936 363.099 455.739 358.927C455.698 358.064 454.273 357.951 454.059 358.772C453.082 362.529 451.263 366.152 449.985 369.838C448.677 373.61 447.354 377.36 445.953 381.105C443.302 388.188 440.096 395.223 436.324 401.781C432.448 408.518 427.619 414.495 423.215 420.868C420.966 424.123 418.722 427.392 416.48 430.638C414.193 433.948 410.902 436.785 408.155 439.691C407.535 440.348 408.116 441.639 409.072 441.156C412.856 439.243 416.082 436.682 419.66 434.463C423.103 432.328 426.165 430.262 429.182 427.494Z" fill="#FFA800"/>
<path d="M354.64 421.747C354.967 421.295 354.452 420.762 353.975 420.946C352.346 421.576 350.538 421.445 348.898 422.068C347.071 422.762 345.268 423.509 343.432 424.184C340.015 425.442 336.592 426.405 333.045 427.223C325.754 428.904 318.481 430.362 311.103 431.622C296.483 434.117 280.645 436.8 269.551 447.513C265.66 451.27 262.953 455.306 260.753 460.222C258.71 464.785 255.76 469.397 255.328 474.497C255.279 475.08 255.969 475.233 256.309 474.855C259.391 471.421 261.199 466.939 264.216 463.424C267.051 460.121 270.847 457.014 274.353 454.449C279.905 450.388 286.476 447.692 292.949 445.486C306.775 440.773 321.703 440.088 335.46 435.184C339.141 433.871 342.793 432.206 346.166 430.231C347.957 429.183 349.738 427.96 351.304 426.595C352.874 425.225 353.453 423.383 354.64 421.747Z" fill="#FFA800"/>
<path d="M453.794 444.604C456.246 441.107 457.084 437.171 458.835 433.376C460.38 430.027 462.013 427.068 462.376 423.331C462.402 423.064 462.078 422.989 461.924 423.166C459.418 426.052 457.847 429.736 455.196 432.47C452.678 435.067 449.525 437 446.998 439.62C441.744 445.067 436.528 450.219 430.374 454.683C423.868 459.403 417.174 463.884 410.175 467.843C406.78 469.763 403.359 471.649 399.927 473.502C398.137 474.469 396.318 475.387 394.555 476.403C392.591 477.535 390.913 478.917 388.994 480.098C388.589 480.347 388.703 481.078 389.257 480.965C391.554 480.493 393.799 480.332 396.076 479.708C397.875 479.215 399.645 478.611 401.415 478.025C405.609 476.637 409.729 475.118 413.791 473.381C421.672 470.01 429.346 466.138 436.268 461.04C442.498 456.452 449.317 450.992 453.794 444.604Z" fill="#FFA800"/>
<path d="M340.039 453.173C335.487 453.598 330.925 453.459 326.361 453.831C321.948 454.191 317.588 455.029 313.283 456.056C308.953 457.089 304.697 458.546 300.804 460.735C298.863 461.825 296.985 463.144 295.334 464.64C293.746 466.079 292.723 468.1 291.655 469.947C291.007 471.067 292.233 472.159 293.292 471.449C295.242 470.14 297.459 469.298 299.539 468.213C301.287 467.301 303.136 466.52 304.966 465.789C308.932 464.202 313.171 463.126 317.336 462.204C321.515 461.279 325.653 460.513 329.711 459.107C333.516 457.788 336.906 455.896 340.272 453.683C340.535 453.51 340.295 453.149 340.039 453.173Z" fill="#FFA800"/>
<path d="M512.078 544.758C512.538 544.15 511.716 543.575 511.169 543.923C505.486 547.533 497.015 546.529 491.447 543.051C485.93 539.604 483.508 532.963 484.783 526.714C486.305 519.256 489.824 511.894 493.717 505.407C495.733 502.047 497.954 498.799 500.125 495.539C502.434 492.071 504.547 488.303 507.041 484.996C507.351 484.585 506.764 484.048 506.374 484.384C503.527 486.841 500.468 488.889 497.739 491.527C494.958 494.214 492.385 497.023 489.986 500.058C485.346 505.932 481.217 512.352 478.464 519.338C475.744 526.24 474.423 533.717 477.694 540.698C480.611 546.926 486.407 552.23 493.351 553.211C501.081 554.302 507.502 550.806 512.078 544.758Z" fill="#FFA800"/>
<path d="M558.944 423.521C560.581 421.32 561.962 418.966 563.209 416.525C564.408 414.177 565.559 411.799 566.475 409.323C567.412 406.791 567.818 403.975 568.145 401.301C568.8 395.955 568.717 390.553 567.634 385.271C567.089 382.618 566.421 379.984 565.142 377.58C563.587 374.657 561.325 371.995 559.34 369.357C559.039 368.958 558.379 369.283 558.465 369.757C559.447 375.159 560.056 380.662 560.74 386.109C561.342 390.901 561.432 395.831 560.889 400.633C560.363 405.287 559.641 410.246 558.227 414.717C557.501 417.015 556.613 419.266 555.623 421.464C554.676 423.567 552.969 425.822 552.561 428.078C552.446 428.711 553.197 429.146 553.73 428.91C555.793 427.995 557.629 425.289 558.944 423.521Z" fill="#FFA800"/>
<path d="M627.691 468.756C633.259 455.208 643.971 444.76 654.803 435.309C660.681 430.181 666.741 425.187 672.179 419.578C674.817 416.858 676.893 413.519 678.902 410.322C680.928 407.098 682.857 403.919 684.293 400.382C684.446 400.007 683.942 399.817 683.708 400.079C680.89 403.25 678.054 406.4 674.84 409.177C671.77 411.83 668.585 414.25 665.633 417.04C659.92 422.439 653.95 427.546 648.368 433.087C643.271 438.147 638.578 443.6 634.674 449.643C632.862 452.449 631.219 455.383 629.846 458.429C628.347 461.757 627.674 465.048 627.048 468.612C626.98 468.997 627.553 469.092 627.691 468.756Z" fill="#FFA800"/>
<path d="M696.291 421.002C698.865 416.272 701.212 411.42 703.295 406.455C707.448 396.557 710.264 386.236 711.188 375.529C711.271 374.567 709.796 374.181 709.5 375.151C706.485 385.056 703.291 394.954 699.374 404.544C697.421 409.325 695.237 414.017 692.798 418.57C691.629 420.752 690.539 422.926 689.476 425.161C688.355 427.517 686.941 430.047 686.239 432.559C686.108 433.028 686.62 433.427 687.025 433.112C690.858 430.136 693.999 425.215 696.291 421.002Z" fill="#FFA800"/>
<path d="M713.45 475.621C713.789 473.974 713.107 471.599 712.879 469.92C712.611 467.949 712.529 466.033 712.665 464.046C712.929 460.204 714.133 456.366 715.024 452.632C715.943 448.78 716.879 445.006 718.456 441.349C719.225 439.568 720.246 437.936 721.069 436.186C721.973 434.263 722.703 432.284 723.837 430.479C724.12 430.029 723.656 429.325 723.12 429.618C721.192 430.672 719.206 431.662 717.498 433.062C715.821 434.436 714.49 436.285 713.261 438.06C710.611 441.889 708.401 446.352 707.47 450.943C706.535 455.55 707.126 459.927 708.085 464.477C708.519 466.538 709.058 468.602 709.693 470.611C710.234 472.322 711.125 474.922 712.604 476.015C712.961 476.278 713.373 475.997 713.45 475.621Z" fill="#FFA800"/>
<path d="M284.951 561.805C288.778 589.085 303.687 605.661 310.556 608.984C358.807 632.327 400.71 613.765 433.705 614.978C484.18 616.833 578.768 628.051 627.042 613.193C645.95 607.374 724.496 625.588 762.524 611.35C795.828 598.881 790.271 553.409 790.271 553.409C790.271 553.409 779.64 569.374 762.907 574.161C753.548 576.839 733.476 569.792 733.591 569.569C738.082 560.414 733.774 546.412 737.653 537.01C735.356 538.352 733.287 540.006 731.446 541.973C727.588 545.079 723.677 548.116 719.712 551.084C711.611 556.882 702.652 561.54 692.742 563.253C685.781 564.457 679.095 563.494 672.574 560.822C669.751 559.95 664.985 556.662 663.336 553.591C659.811 566.243 654.976 579.786 645.293 589.05C638.681 595.376 611.268 609.858 593.272 611.027C540.16 614.477 531.205 572.317 531.205 572.317C531.205 572.317 512.313 608.055 471.045 601.648C451.18 598.564 444.273 577.461 443.22 568.052C442.629 562.778 443.014 557.338 443.39 552.066C443.819 546.039 444.313 539.976 445.406 534.032C447.628 521.953 454.593 512.027 461.612 502.261C452.96 507.283 444.64 512.004 435.212 515.54C429.165 517.807 423.12 520.075 416.929 521.923C412.333 523.295 407.735 524.489 403.265 526.263C388.188 532.25 374.518 542.596 364.489 555.581C356.864 565.453 355.947 576.216 355.486 576.176C350.931 575.775 336.395 579.993 313.46 553.41C304.45 542.967 301.645 514.588 301.645 514.588C301.645 514.588 281.124 534.525 284.951 561.805Z" fill="#FF6610"/>
<path d="M292.942 552.902C295.518 571.521 301.49 591.203 316.549 602.45C325.339 609.015 336.299 611.952 347.122 613.747C356.993 615.384 367.159 616.18 376.97 614.213C382.034 613.197 386.926 611.461 391.952 610.268C397.368 608.983 402.914 608.336 408.456 607.814C430.73 605.713 453.588 605.647 475.014 612.089C459.337 606.646 446.007 594.76 438.812 579.806C431.615 564.853 430.643 547.02 436.171 531.373C417.494 537.882 402 552.964 394.991 571.459C393.356 561.454 394.459 551.015 398.149 541.573C383.277 554.234 367.622 568.102 362.677 586.997C342.094 589.666 321.164 580.809 305.203 567.543C297.989 561.547 292.942 552.902 292.942 552.902Z" fill="#FF6610"/>
<path d="M529.975 586.305C534.642 598.459 544.943 608.315 557.291 612.439C548.884 614.396 540.143 614.23 531.519 613.858C523.721 613.521 515.93 613.023 508.152 612.365C504.635 612.067 499.265 612.55 496.021 611.208C492.107 609.589 494.094 609.356 497.646 608.201C503.951 606.15 509.702 603.007 515.073 599.136C516.685 597.974 530.583 587.887 529.975 586.305Z" fill="#FF6610"/>
<path d="M672.857 574.764C673.185 579.338 677.614 582.799 682.155 583.439C686.696 584.079 691.25 582.524 695.441 580.663C707.334 575.383 718.022 567.411 726.472 557.516C725.324 563.31 721.27 568.691 722.201 574.523C722.893 578.86 726.282 582.324 730.063 584.558C736.755 588.513 744.923 589.436 752.625 588.39C760.328 587.344 767.659 584.454 774.714 581.191C771.386 589.195 764.821 595.589 757.231 599.775C749.641 603.961 741.06 606.079 732.457 607.138C723.889 608.193 715.018 608.209 706.829 605.48C701.815 603.809 697.116 601.131 691.923 600.155C683.902 598.648 675.781 601.349 667.822 603.152C661.261 604.639 654.565 605.525 647.843 605.8C639.288 606.151 642.135 603.183 647.351 599.91C657.538 593.516 665.355 583.994 672.857 574.764Z" fill="#FF6610"/>
<defs>
<clipPath id="clip0_835_776">
<rect width="574" height="575" fill="white" transform="matrix(1 0 0 -1 -92.3242 823.126)"/>
</clipPath>
</defs>
</svg>
