<svg width="1280" height="358" viewBox="0 0 1280 358" fill="none" xmlns="http://www.w3.org/2000/svg">
<g clip-path="url(#clip0_833_775)">
<path d="M640.28 77.0775C854.524 77.0775 1028.2 250.756 1028.2 465C1028.2 679.244 854.524 852.922 640.28 852.922C426.036 852.922 252.357 679.244 252.357 465C252.357 250.756 426.036 77.0775 640.28 77.0775Z" fill="#FF7425"/>
<path d="M707.364 134.891C736.664 134.892 760.415 158.646 760.414 187.947C760.412 217.247 736.659 240.999 707.359 240.998C678.059 240.997 654.308 217.243 654.309 187.942C654.31 158.642 678.064 134.89 707.364 134.891Z" fill="white"/>
<mask id="mask0_833_775" style="mask-type:luminance" maskUnits="userSpaceOnUse" x="654" y="134" width="107" height="107">
<path d="M707.364 134.892C736.665 134.893 760.416 158.647 760.415 187.947C760.413 217.247 736.66 240.998 707.359 240.997C678.059 240.996 654.308 217.242 654.309 187.942C654.31 158.642 678.064 134.89 707.364 134.892Z" fill="white"/>
</mask>
<g mask="url(#mask0_833_775)">
<path d="M704.172 166.038C727.443 166.039 746.307 184.905 746.305 208.175C746.304 231.446 727.439 250.31 704.168 250.309C680.898 250.308 662.034 231.442 662.035 208.172C662.036 184.901 680.902 166.037 704.172 166.038Z" fill="#0B0B15"/>
</g>
<path d="M707.202 134.891C736.502 134.892 760.253 158.646 760.251 187.947C760.25 217.247 736.497 240.999 707.197 240.998C677.897 240.997 654.146 217.243 654.147 187.942C654.148 158.642 677.902 134.89 707.202 134.891Z" fill="white"/>
<mask id="mask1_833_775" style="mask-type:luminance" maskUnits="userSpaceOnUse" x="654" y="134" width="107" height="107">
<path d="M707.2 134.892C736.5 134.893 760.252 158.647 760.25 187.947C760.249 217.247 736.495 240.998 707.195 240.997C677.895 240.996 654.144 217.242 654.145 187.942C654.146 158.642 677.9 134.89 707.2 134.892Z" fill="white"/>
</mask>
<g mask="url(#mask1_833_775)">
<path d="M702.2 166.038C725.74 166.039 744.822 185.123 744.821 208.663C744.82 232.204 725.736 251.286 702.196 251.285C678.655 251.284 659.573 232.2 659.574 208.659C659.575 185.119 678.659 166.037 702.2 166.038Z" fill="#0B0B15"/>
</g>
<path d="M573.202 134.891C602.502 134.892 626.253 158.646 626.251 187.947C626.25 217.247 602.497 240.999 573.197 240.998C543.897 240.997 520.146 217.243 520.147 187.942C520.148 158.642 543.902 134.89 573.202 134.891Z" fill="white"/>
<mask id="mask2_833_775" style="mask-type:luminance" maskUnits="userSpaceOnUse" x="520" y="134" width="107" height="107">
<path d="M573.2 134.892C602.5 134.893 626.252 158.647 626.25 187.947C626.249 217.247 602.495 240.998 573.195 240.997C543.895 240.996 520.144 217.242 520.145 187.942C520.146 158.642 543.9 134.89 573.2 134.892Z" fill="white"/>
</mask>
<g mask="url(#mask2_833_775)">
<path d="M578.2 166.038C601.74 166.039 620.822 185.123 620.821 208.663C620.82 232.204 601.736 251.286 578.196 251.285C554.655 251.284 535.573 232.2 535.574 208.659C535.575 185.119 554.659 166.037 578.2 166.038Z" fill="#0B0B15"/>
</g>
<path d="M653.598 264.213C653.166 277.031 645.971 287.192 637.529 286.907C629.086 286.623 622.592 276.001 623.024 263.182C623.456 250.364 630.651 240.203 639.094 240.488C647.536 240.772 654.03 251.394 653.598 264.213Z" fill="#0A0B15"/>
</g>
<path d="M934.736 236.897C918.239 245.845 907.326 262.614 902.156 280.657C888.283 329.077 915.421 397.497 957.737 408.404C1000.41 419.401 1040.39 410.126 1076.98 410.126C1111.99 410.126 1152.04 418.107 1185.04 417.014C1254.64 414.709 1275.25 402.47 1300.42 402.089C1325.31 401.713 1350.95 413.425 1397.68 407.087C1430.3 402.663 1454.53 370.826 1454.53 322.497C1454.53 294.176 1440.48 268.826 1427.88 254.854C1434.5 274.714 1430.41 297.799 1417.37 314.179C1424.44 301.489 1419.44 285.389 1411.75 273.067C1404.05 260.745 1393.7 249.777 1389.17 235.976C1382.92 216.924 1389 195.822 1398.92 178.398C1382.48 184.146 1367.3 194.448 1357.67 208.959C1348.05 223.471 1344.5 242.382 1350.25 258.821C1352.24 264.501 1355.32 270.137 1354.75 276.128C1354.18 282.119 1347.49 287.881 1342.35 284.752C1340.44 283.59 1339.29 281.538 1338.27 279.549C1331.63 266.583 1327.3 251.99 1328.88 237.512C1330.42 223.354 1337.44 210.441 1344.7 198.192C1351.97 185.943 1359.74 173.66 1363.08 159.817C1366.43 145.974 1364.52 129.934 1354.44 119.87C1356.21 138.222 1345.25 155.608 1331.74 168.157C1318.24 180.707 1279.65 207.458 1259.93 244.621C1232.93 295.481 1268.31 335.949 1248.98 339.044C1229.64 342.14 1206.68 285.376 1227.62 251.422C1235.82 238.113 1245.15 226.066 1261.5 219.383C1239.61 215.886 1218.95 231.257 1205.58 248.941C1192.22 266.625 1182.98 287.5 1167.3 303.17C1164 306.467 1160.27 309.596 1155.76 310.783C1151.25 311.97 1145.81 310.707 1143.33 306.756C1141.76 304.253 1141.59 301.119 1141.85 298.176C1143.77 276.641 1164.32 262.649 1180.34 248.129C1196.09 233.856 1209.12 216.008 1214.96 195.576C1220.81 175.144 1218.84 151.993 1207.05 134.313C1200.94 125.156 1192.38 117.547 1188.02 107.442C1181.08 91.3632 1186.52 72.0917 1197.2 58.213C1207.88 44.3343 1223.04 34.7314 1237.87 25.4211C1213.06 21.2768 1186.61 28.1164 1166.92 43.7708C1147.23 59.4248 1134.6 83.6466 1133.04 108.755C1132.12 123.516 1134.77 138.838 1129.9 152.799C1128.57 138.223 1122.57 124.109 1112.99 113.035C1122.95 160.574 1097.79 213.266 1054.56 235.403C1040.95 242.372 1025.88 246.57 1013.27 255.214C999.251 264.82 989.257 279.285 981.509 294.407C982.792 275.994 996.839 261.479 1008.64 247.287C1020.44 233.094 1031.19 214.31 1024.67 197.042C1016.17 211.536 999.268 218.788 982.966 222.855C966.665 226.923 949.506 228.886 934.736 236.897Z" fill="#FFC93F"/>
<path d="M977.782 271.639C982.395 261.44 988.488 253.135 995.747 244.686C1000.76 238.855 1008.31 231.981 1009.48 224.552C1000.32 231.579 991.646 238.315 980.96 243.068C965.307 250.028 949.051 249.954 935.252 261.515C916.806 276.97 907.114 316.031 911.818 339.795C916.521 363.559 939.099 390.709 952.572 398.071C973.194 409.341 1027.81 407.445 1051.17 404.959C1094.35 400.367 1129.9 410.635 1162.89 411.848C1213.37 413.703 1229.38 409.441 1279.06 400.368C1339.45 389.34 1400.21 420.686 1430.3 381.501C1454.53 349.952 1448.03 306.872 1442.79 294.004C1434.21 319.923 1412.6 328.693 1412.6 328.693C1412.6 328.693 1412.12 301.507 1403.15 283.351C1389.03 254.781 1365.22 238.25 1375.47 207.915C1366.72 221.312 1364.07 236.783 1364.99 252.647C1365.45 260.715 1371.21 274.133 1369.15 282.572C1366.37 293.98 1353.62 299.157 1342.51 298.646C1317.46 297.495 1310.08 270.763 1312.41 249.457C1315.2 223.891 1333.06 202.897 1339.44 178.463C1333.39 189.622 1325.68 198 1315.82 205.936C1293.25 224.107 1278.84 243.936 1272.81 273.217C1269.98 286.98 1271.1 299.53 1272.57 313.349C1273.84 325.226 1276.2 336.4 1271.88 348.208C1264.63 367.978 1245.42 361.31 1230.24 354.163C1211.36 345.278 1202.8 327.689 1202.7 307.042C1202.65 298.495 1204.37 289.511 1206.19 281.227C1208.82 269.248 1216.9 260.169 1220.18 248.945C1208.62 260.415 1203.23 277.531 1195.29 291.421C1185.88 307.879 1171.17 330.401 1154.37 340.272C1125 357.525 1101.21 325.595 1112.23 299.535C1120.39 280.229 1136.96 265.549 1151.58 251.182C1169.28 233.773 1194.62 210.167 1198.71 184.149C1202.88 157.654 1181.42 143.856 1169.81 123.305C1160.86 107.487 1163.05 90.7412 1162.95 73.1817C1150.4 96.6376 1150.12 122.745 1150.42 148.575C1150.67 170.076 1147.67 195.088 1127.77 207.683C1129.95 196.383 1135.16 183.157 1127.21 172.766C1131.97 205.281 1094.22 246.307 1065.76 257.411C1047.26 264.63 1028.78 270.503 1012.2 281.941C1000.37 290.101 984.241 307.157 982.77 322.263C972.689 306.288 969.988 288.867 977.782 271.639Z" fill="#FFA800"/>
<path d="M946.258 384.869C960.782 397.497 996.624 404.456 1023.17 401.515C1066.65 396.7 1083.74 399.424 1116.74 400.636C1167.21 402.491 1223.62 409.726 1271.89 394.868C1315.74 381.375 1389.68 407.853 1417.05 389.339C1444.42 370.826 1444.77 321.728 1439.95 317.136C1413.5 349.951 1394.81 336.845 1394.81 336.845C1394.81 336.845 1399.72 322.497 1395.81 300.9C1394.43 293.287 1389.9 286.623 1388.55 278.967C1379.85 300.507 1358.61 325.942 1332.8 318.523C1319.2 314.614 1308.31 303.494 1302.21 291.015C1296.43 279.171 1297.77 268.057 1298.87 255.293C1286.82 283.63 1299.66 312.954 1294.08 341.723C1290.12 362.11 1269.06 375.14 1250.03 379.784C1233.7 383.771 1208.6 378.77 1194.75 368.589C1184.36 360.95 1180.53 343.299 1185.72 331.351C1172.48 347.12 1149.76 365.128 1128.08 365.167C1101.04 365.215 1096.62 329.774 1101.67 310.207C1108.67 283.013 1125.81 269.328 1144.96 250.408C1162.34 233.233 1177.36 199.797 1171.5 166.673C1167.28 196.357 1142.71 232.698 1125.67 250.233C1111.86 264.437 1094.93 271.271 1076.76 278.829C1054.09 288.264 1031.58 291.744 1012.06 307.964C997.715 319.882 994.127 330.704 992.48 348.731C976.749 338.606 961.644 324.004 957.452 305.073C954.621 292.289 954.506 272.767 962.933 262.125C949.54 273.371 937.66 285.921 929.874 302.358C910.639 342.967 931.733 372.241 946.258 384.869Z" fill="#FFA800"/>
<path d="M1405.66 271.556C1404.31 268.932 1403.19 265.918 1401.46 263.531C1399.56 260.906 1397.43 258.424 1395.42 255.882C1391.69 251.167 1388.38 246.447 1385.95 240.93C1381.71 231.298 1380.74 220.397 1381.7 209.994C1381.72 209.802 1381.45 209.749 1381.38 209.922C1377.14 220.155 1377.77 231.308 1381.47 241.617C1383.53 247.326 1386.98 252.339 1390.71 257.074C1392.83 259.773 1394.97 262.457 1397.13 265.134C1399.31 267.856 1402.26 269.911 1404.92 272.17C1405.3 272.491 1405.88 271.978 1405.66 271.556Z" fill="#FFA800"/>
<path d="M1433.84 301.026C1434.22 300.465 1434.56 299.978 1435.03 299.497C1435.58 298.935 1436.16 298.408 1436.51 297.692C1437.6 295.434 1438.4 292.82 1439.07 290.398C1440.28 286.014 1440.46 280.727 1438.14 276.688C1437.69 275.894 1436.25 276.155 1436.49 277.19C1436.95 279.204 1436.95 281.313 1436.6 283.347C1436.25 285.439 1435.37 287.35 1434.68 289.34C1433.94 291.486 1432.92 293.537 1432.18 295.679C1431.71 297.039 1432.03 298.486 1431.61 299.87C1431.21 301.173 1430.72 302.441 1430.32 303.742C1430.17 304.221 1430.76 304.731 1431.17 304.342C1432.22 303.355 1433.05 302.22 1433.84 301.026Z" fill="#FFA800"/>
<path d="M1417.05 261.333C1416.56 258.22 1414.42 255.383 1413.16 252.522C1411.74 249.297 1410.39 246.024 1408.93 242.79C1406.02 236.35 1402.85 230.058 1401.08 223.168C1398.04 211.371 1397.42 199.443 1402.67 188.133C1402.75 187.954 1402.49 187.842 1402.38 187.981C1394.56 197.744 1391.76 211.717 1393.97 223.945C1395.29 231.259 1397.92 238.595 1401.78 244.964C1403.79 248.296 1406.04 251.428 1408.87 254.082C1411.47 256.527 1413.38 260.007 1416.66 261.653C1416.86 261.755 1417.08 261.528 1417.05 261.333Z" fill="#FFA800"/>
<path d="M1315.84 169.798C1322.14 164.15 1327.74 157.258 1332.39 150.218C1334.76 146.635 1336.89 142.893 1338.82 139.053C1340.84 135.013 1342.08 130.925 1343.49 126.652C1343.61 126.271 1343.04 125.921 1342.83 126.311C1340.79 130.177 1338.19 133.827 1335.76 137.467C1333.28 141.169 1330.55 144.695 1327.63 148.059C1321.71 154.871 1314.82 160.493 1307.52 165.749C1296.14 173.941 1277.56 182.584 1279.16 199.254C1279.19 199.565 1279.59 199.596 1279.76 199.39C1289.74 187.096 1304.23 180.214 1315.84 169.798Z" fill="#FFA800"/>
<path d="M1238.7 157.405C1239.46 153.828 1239.96 150.281 1239.86 146.618C1239.64 138.7 1237.46 131.505 1233.29 124.767C1228.36 116.82 1221.26 110.649 1215.99 102.974C1211.36 96.2496 1208.6 88.838 1207.71 80.7483C1206.7 71.6043 1210 64.2214 1214.9 56.7382C1215.09 56.4499 1214.78 55.9961 1214.44 56.184C1208.35 59.5555 1204.69 66.6256 1203.01 73.1704C1200.92 81.2634 1201.54 88.9981 1204.18 96.901C1207.01 105.391 1212.32 112.494 1217.82 119.43C1220.73 123.106 1223.81 126.775 1226.05 130.917C1227.85 134.258 1229.06 137.793 1230.18 141.409C1231.36 145.258 1231.94 149.276 1232.27 153.283C1232.61 157.493 1231.46 161.748 1232.21 165.942C1232.37 166.832 1233.52 167.35 1234.23 166.695C1236.88 164.263 1237.97 160.819 1238.7 157.405Z" fill="#FFA800"/>
<path d="M1074.03 205.484C1080.34 199.701 1085.14 192.329 1089.28 184.89C1093.41 177.453 1096.69 169.802 1098.9 161.58C1099.99 157.537 1100.78 153.41 1101.12 149.234C1101.47 145.018 1100.79 141.09 1100.59 136.917C1100.55 136.054 1099.12 135.941 1098.91 136.763C1097.93 140.52 1096.11 144.142 1094.84 147.828C1093.53 151.601 1092.21 155.35 1090.8 159.095C1088.15 166.178 1084.95 173.213 1081.18 179.771C1077.3 186.508 1072.47 192.485 1068.07 198.859C1065.82 202.114 1063.57 205.382 1061.33 208.628C1059.04 211.939 1055.75 214.776 1053.01 217.681C1052.39 218.338 1052.97 219.629 1053.92 219.146C1057.71 217.234 1060.93 214.673 1064.51 212.453C1067.95 210.318 1071.02 208.252 1074.03 205.484Z" fill="#FFA800"/>
<path d="M999.492 199.737C999.819 199.286 999.303 198.752 998.826 198.936C997.198 199.566 995.39 199.435 993.749 200.058C991.923 200.752 990.12 201.499 988.284 202.175C984.866 203.432 981.443 204.395 977.897 205.213C970.605 206.894 963.333 208.352 955.954 209.612C941.335 212.107 925.497 214.79 914.402 225.504C910.512 229.26 907.805 233.297 905.605 238.212C903.562 242.775 900.612 247.387 900.18 252.487C900.13 253.07 900.821 253.223 901.16 252.845C904.242 249.411 906.05 244.929 909.067 241.414C911.902 238.111 915.699 235.004 919.204 232.439C924.756 228.378 931.327 225.683 937.801 223.476C951.627 218.763 966.555 218.078 980.312 213.174C983.993 211.862 987.645 210.196 991.018 208.221C992.808 207.174 994.589 205.95 996.156 204.585C997.726 203.216 998.305 201.373 999.492 199.737Z" fill="#FFA800"/>
<path d="M1098.65 222.595C1101.1 219.098 1101.94 215.162 1103.69 211.366C1105.23 208.017 1106.86 205.058 1107.23 201.321C1107.25 201.055 1106.93 200.979 1106.78 201.157C1104.27 204.042 1102.7 207.726 1100.05 210.46C1097.53 213.057 1094.38 214.991 1091.85 217.61C1086.6 223.057 1081.38 228.209 1075.23 232.673C1068.72 237.393 1062.03 241.874 1055.03 245.833C1051.63 247.753 1048.21 249.639 1044.78 251.492C1042.99 252.459 1041.17 253.377 1039.41 254.393C1037.44 255.525 1035.77 256.907 1033.85 258.088C1033.44 258.337 1033.55 259.068 1034.11 258.955C1036.41 258.483 1038.65 258.323 1040.93 257.698C1042.73 257.205 1044.5 256.601 1046.27 256.015C1050.46 254.627 1054.58 253.109 1058.64 251.371C1066.52 248.001 1074.2 244.128 1081.12 239.031C1087.35 234.442 1094.17 228.983 1098.65 222.595Z" fill="#FFA800"/>
<path d="M984.891 231.163C980.339 231.588 975.776 231.449 971.212 231.821C966.799 232.181 962.439 233.019 958.134 234.046C953.805 235.079 949.549 236.536 945.655 238.725C943.714 239.816 941.836 241.134 940.185 242.63C938.598 244.069 937.574 246.091 936.506 247.937C935.858 249.057 937.084 250.149 938.143 249.439C940.093 248.13 942.311 247.288 944.39 246.203C946.139 245.291 947.988 244.511 949.818 243.779C953.784 242.192 958.022 241.116 962.188 240.194C966.366 239.27 970.505 238.503 974.562 237.097C978.368 235.778 981.757 233.886 985.124 231.674C985.387 231.501 985.147 231.139 984.891 231.163Z" fill="#FFA800"/>
<path d="M1156.93 322.748C1157.39 322.14 1156.57 321.565 1156.02 321.913C1150.34 325.523 1141.87 324.52 1136.3 321.041C1130.78 317.594 1128.36 310.953 1129.63 304.704C1131.16 297.246 1134.68 289.884 1138.57 283.397C1140.58 280.038 1142.81 276.79 1144.98 273.529C1147.29 270.061 1149.4 266.293 1151.89 262.987C1152.2 262.575 1151.62 262.038 1151.23 262.375C1148.38 264.831 1145.32 266.879 1142.59 269.517C1139.81 272.204 1137.24 275.013 1134.84 278.049C1130.2 283.923 1126.07 290.343 1123.32 297.328C1120.6 304.23 1119.27 311.707 1122.55 318.688C1125.46 324.916 1131.26 330.22 1138.2 331.201C1145.93 332.293 1152.35 328.796 1156.93 322.748Z" fill="#FFA800"/>
<path d="M1203.8 201.512C1205.43 199.31 1206.81 196.956 1208.06 194.515C1209.26 192.167 1210.41 189.789 1211.33 187.313C1212.26 184.781 1212.67 181.966 1213 179.291C1213.65 173.945 1213.57 168.543 1212.49 163.261C1211.94 160.608 1211.27 157.974 1209.99 155.571C1208.44 152.647 1206.18 149.985 1204.19 147.347C1203.89 146.949 1203.23 147.273 1203.32 147.747C1204.3 153.149 1204.91 158.652 1205.59 164.099C1206.19 168.891 1206.28 173.821 1205.74 178.623C1205.21 183.278 1204.49 188.236 1203.08 192.707C1202.35 195.005 1201.46 197.256 1200.47 199.454C1199.53 201.557 1197.82 203.812 1197.41 206.068C1197.3 206.702 1198.05 207.137 1198.58 206.901C1200.64 205.985 1202.48 203.279 1203.8 201.512Z" fill="#FFA800"/>
<path d="M1272.54 246.747C1278.11 233.198 1288.82 222.75 1299.65 213.3C1305.53 208.171 1311.59 203.177 1317.03 197.569C1319.67 194.848 1321.74 191.509 1323.75 188.312C1325.78 185.088 1327.71 181.91 1329.14 178.372C1329.3 177.997 1328.79 177.807 1328.56 178.07C1325.74 181.24 1322.91 184.39 1319.69 187.167C1316.62 189.82 1313.44 192.24 1310.48 195.03C1304.77 200.43 1298.8 205.536 1293.22 211.077C1288.12 216.137 1283.43 221.59 1279.53 227.633C1277.71 230.439 1276.07 233.373 1274.7 236.42C1273.2 239.747 1272.53 243.038 1271.9 246.603C1271.83 246.987 1272.4 247.082 1272.54 246.747Z" fill="#FFA800"/>
<path d="M1341.14 198.992C1343.72 194.263 1346.06 189.411 1348.15 184.445C1352.3 174.547 1355.12 164.226 1356.04 153.519C1356.12 152.558 1354.65 152.171 1354.35 153.142C1351.34 163.047 1348.14 172.944 1344.23 182.534C1342.27 187.316 1340.09 192.007 1337.65 196.56C1336.48 198.742 1335.39 200.917 1334.33 203.151C1333.21 205.508 1331.79 208.037 1331.09 210.549C1330.96 211.019 1331.47 211.418 1331.88 211.102C1335.71 208.126 1338.85 203.205 1341.14 198.992Z" fill="#FFA800"/>
<path d="M1358.3 253.611C1358.64 251.965 1357.96 249.589 1357.73 247.91C1357.46 245.939 1357.38 244.023 1357.52 242.037C1357.78 238.194 1358.98 234.356 1359.88 230.622C1360.79 226.77 1361.73 222.996 1363.31 219.34C1364.08 217.558 1365.1 215.926 1365.92 214.177C1366.82 212.253 1367.55 210.274 1368.69 208.47C1368.97 208.02 1368.51 207.315 1367.97 207.608C1366.04 208.662 1364.06 209.652 1362.35 211.052C1360.67 212.427 1359.34 214.275 1358.11 216.05C1355.46 219.88 1353.25 224.342 1352.32 228.933C1351.39 233.54 1351.98 237.917 1352.94 242.467C1353.37 244.528 1353.91 246.592 1354.54 248.601C1355.09 250.313 1355.98 252.912 1357.46 254.005C1357.81 254.268 1358.22 253.988 1358.3 253.611Z" fill="#FFA800"/>
<path d="M929.803 339.795C933.629 367.075 948.539 383.651 955.407 386.974C1003.66 410.317 1045.56 391.755 1078.56 392.968C1129.03 394.823 1223.62 406.041 1271.89 391.184C1290.8 385.364 1369.35 403.578 1407.38 389.34C1440.68 376.871 1435.12 331.4 1435.12 331.4C1435.12 331.4 1424.49 347.364 1407.76 352.151C1398.4 354.829 1378.33 347.783 1378.44 347.559C1382.93 338.404 1378.63 324.402 1382.5 315C1380.21 316.342 1378.14 317.997 1376.3 319.963C1372.44 323.069 1368.53 326.106 1364.56 329.074C1356.46 334.872 1347.5 339.53 1337.59 341.243C1330.63 342.447 1323.95 341.484 1317.43 338.812C1314.6 337.94 1309.84 334.652 1308.19 331.581C1304.66 344.233 1299.83 357.776 1290.14 367.04C1283.53 373.367 1256.12 387.849 1238.12 389.017C1185.01 392.467 1176.06 350.307 1176.06 350.307C1176.06 350.307 1157.16 386.045 1115.9 379.639C1096.03 376.554 1089.13 355.451 1088.07 346.042C1087.48 340.768 1087.87 335.329 1088.24 330.056C1088.67 324.029 1089.16 317.966 1090.26 312.022C1092.48 299.944 1099.44 290.017 1106.46 280.251C1097.81 285.273 1089.49 289.994 1080.06 293.53C1074.02 295.797 1067.97 298.066 1061.78 299.913C1057.18 301.285 1052.59 302.479 1048.12 304.254C1033.04 310.24 1019.37 320.586 1009.34 333.571C1001.72 343.443 1000.8 354.206 1000.34 354.166C995.783 353.766 981.247 357.984 958.311 331.4C949.302 320.957 946.496 292.578 946.496 292.578C946.496 292.578 925.976 312.515 929.803 339.795Z" fill="#FF7425"/>
<path d="M937.793 330.892C940.369 349.511 946.341 369.193 961.401 380.44C970.191 387.005 981.151 389.943 991.973 391.737C1001.84 393.374 1012.01 394.17 1021.82 392.203C1026.89 391.187 1031.78 389.451 1036.8 388.259C1042.22 386.974 1047.77 386.326 1053.31 385.804C1075.58 383.704 1098.44 383.637 1119.87 390.079C1104.19 384.636 1090.86 372.75 1083.66 357.797C1076.47 342.843 1075.49 325.01 1081.02 309.363C1062.35 315.872 1046.85 330.954 1039.84 349.45C1038.21 339.444 1039.31 329.005 1043 319.563C1028.13 332.224 1012.47 346.092 1007.53 364.988C986.946 367.656 966.016 358.8 950.055 345.533C942.841 339.537 937.793 330.892 937.793 330.892Z" fill="#FF7425"/>
<path d="M1174.83 364.296C1179.49 376.45 1189.79 386.305 1202.14 390.429C1193.74 392.386 1184.99 392.221 1176.37 391.848C1168.57 391.511 1160.78 391.013 1153 390.355C1149.49 390.057 1144.12 390.54 1140.87 389.198C1136.96 387.579 1138.95 387.346 1142.5 386.191C1148.8 384.14 1154.55 380.997 1159.92 377.126C1161.54 375.965 1175.43 365.878 1174.83 364.296Z" fill="#FF7425"/>
<path d="M1317.71 352.754C1318.04 357.328 1322.47 360.789 1327.01 361.429C1331.55 362.07 1336.1 360.514 1340.29 358.653C1352.19 353.373 1362.87 345.401 1371.32 335.506C1370.18 341.3 1366.12 346.681 1367.05 352.514C1367.74 356.85 1371.13 360.314 1374.91 362.548C1381.61 366.503 1389.77 367.427 1397.48 366.38C1405.18 365.334 1412.51 362.444 1419.57 359.181C1416.24 367.185 1409.67 373.579 1402.08 377.765C1394.49 381.952 1385.91 384.07 1377.31 385.129C1368.74 386.183 1359.87 386.2 1351.68 383.47C1346.67 381.799 1341.97 379.121 1336.77 378.145C1328.75 376.638 1320.63 379.339 1312.67 381.143C1306.11 382.629 1299.42 383.515 1292.69 383.791C1284.14 384.141 1286.99 381.174 1292.2 377.9C1302.39 371.506 1310.21 361.984 1317.71 352.754Z" fill="#FF7425"/>
<path d="M-146.34 221.016C-163.486 230.317 -174.828 247.744 -180.2 266.496C-194.619 316.818 -166.415 387.925 -122.436 399.26C-78.0889 410.689 -36.5325 401.05 1.49419 401.05C37.873 401.05 79.5033 409.344 113.799 408.208C186.124 405.813 207.547 393.093 233.703 392.698C259.579 392.307 286.226 404.478 334.789 397.892C368.687 393.294 393.867 360.207 393.867 309.979C393.867 280.546 379.273 254.2 366.171 239.679C373.05 260.319 368.803 284.311 355.256 301.334C362.602 288.145 357.402 271.413 349.406 258.608C341.41 245.802 330.652 234.402 325.944 220.059C319.444 200.259 325.762 178.328 336.072 160.22C318.987 166.194 303.216 176.9 293.209 191.982C283.203 207.063 279.518 226.717 285.494 243.802C287.559 249.705 290.759 255.562 290.171 261.789C289.583 268.015 282.626 274.004 277.284 270.751C275.301 269.543 274.1 267.411 273.042 265.344C266.147 251.869 261.637 236.703 263.281 221.656C264.888 206.942 272.178 193.521 279.729 180.791C287.279 168.061 295.356 155.296 298.832 140.909C302.309 126.522 300.326 109.852 289.853 99.3934C291.689 118.466 280.297 136.535 266.26 149.577C252.224 162.619 212.126 190.422 191.623 229.045C163.564 281.902 200.335 323.96 180.241 327.176C160.148 330.394 136.289 271.4 158.046 236.113C166.574 222.281 176.263 209.76 193.253 202.815C170.503 199.18 149.038 215.155 135.146 233.533C121.253 251.912 111.653 273.607 95.3569 289.892C91.9291 293.319 88.0524 296.571 83.3652 297.805C78.6777 299.038 73.0207 297.726 70.445 293.62C68.8136 291.018 68.6388 287.761 68.9109 284.702C70.9002 262.322 92.2642 247.78 108.911 232.69C125.275 217.856 138.82 199.308 144.894 178.073C150.968 156.838 148.919 132.778 136.666 114.403C130.32 104.887 121.422 96.9791 116.891 86.4772C109.68 69.7666 115.338 49.7381 126.436 35.3143C137.535 20.8905 153.289 10.9103 168.704 1.23439C142.916 -3.07268 115.431 4.03555 94.9644 20.3048C74.4975 36.5736 61.3729 61.7468 59.7513 87.8419C58.7979 103.182 61.5554 119.106 56.4872 133.616C55.103 118.467 48.867 103.798 38.919 92.2892C49.2709 141.696 23.1202 196.458 -21.8111 219.464C-35.9545 226.706 -51.6191 231.07 -64.7255 240.053C-79.2912 250.036 -89.6777 265.07 -97.7303 280.786C-96.3975 261.649 -81.7986 246.565 -69.5358 231.815C-57.2725 217.064 -46.0987 197.542 -52.8728 179.597C-61.7037 194.66 -79.2738 202.196 -96.216 206.424C-113.157 210.651 -130.991 212.691 -146.34 221.016Z" fill="#FFC93F"/>
<path d="M-101.604 257.123C-96.8097 246.524 -90.4771 237.893 -82.9334 229.112C-77.7277 223.052 -69.8777 215.908 -68.6573 208.187C-78.1846 215.49 -87.1952 222.491 -98.3012 227.43C-114.569 234.664 -131.463 234.586 -145.804 246.602C-164.975 262.664 -175.048 303.259 -170.159 327.956C-165.271 352.654 -141.807 380.87 -127.804 388.522C-106.372 400.234 -49.6161 398.263 -25.3298 395.68C19.5444 390.908 56.4845 401.579 90.7757 402.839C143.233 404.767 159.872 400.338 211.51 390.908C274.273 379.447 337.414 412.025 368.688 371.301C393.868 338.512 387.11 293.74 381.669 280.367C372.75 307.304 350.292 316.418 350.292 316.418C350.292 316.418 349.793 288.164 340.468 269.295C325.796 239.603 301.052 222.423 311.708 190.896C302.609 204.82 299.861 220.898 300.809 237.385C301.291 245.77 307.281 259.715 305.141 268.486C302.249 280.341 289 285.722 277.445 285.191C251.42 283.995 243.748 256.213 246.167 234.07C249.07 207.499 267.634 185.681 274.261 160.288C267.976 171.884 259.955 180.592 249.712 188.839C226.257 207.725 211.278 228.332 205.012 258.763C202.067 273.067 203.231 286.109 204.766 300.472C206.086 312.815 208.539 324.428 204.042 336.7C196.513 357.246 176.549 350.316 160.765 342.889C141.145 333.655 132.251 315.375 132.144 293.917C132.1 285.034 133.88 275.697 135.772 267.088C138.507 254.638 146.903 245.203 150.319 233.538C138.301 245.458 132.703 263.247 124.45 277.682C114.673 294.786 99.3755 318.194 81.915 328.453C51.3951 346.382 26.6698 313.199 38.122 286.115C46.605 266.05 63.8302 250.794 79.0166 235.863C97.4194 217.77 123.748 193.237 128.001 166.197C132.332 138.661 110.033 124.321 97.9614 102.963C88.6693 86.5235 90.9462 69.1201 90.8378 50.871C77.7911 75.2481 77.5012 102.381 77.8115 129.225C78.0699 151.572 74.956 177.566 54.2795 190.656C56.5445 178.911 61.9543 165.166 53.6951 154.367C58.6442 188.159 19.4069 230.796 -10.1734 242.337C-29.4021 249.839 -48.6006 255.942 -65.8319 267.83C-78.1255 276.311 -94.8912 294.037 -96.4199 309.735C-106.897 293.134 -109.704 275.029 -101.604 257.123Z" fill="#FFA800"/>
<path d="M-134.366 374.801C-119.272 387.925 -82.0216 395.158 -54.4284 392.101C-9.24983 387.097 8.51891 389.927 42.8098 391.187C95.267 393.115 153.89 400.634 204.06 385.193C249.624 371.17 326.468 398.688 354.917 379.447C383.367 360.206 383.725 309.18 378.713 304.408C351.227 338.512 331.806 324.891 331.806 324.891C331.806 324.891 336.91 309.979 332.845 287.533C331.412 279.622 326.706 272.696 325.302 264.739C316.252 287.125 294.187 313.56 267.363 305.849C253.228 301.786 241.908 290.229 235.571 277.261C229.556 264.951 230.949 253.401 232.093 240.135C219.569 269.585 232.914 300.061 227.114 329.96C223.003 351.148 201.119 364.689 181.34 369.516C164.363 373.659 138.277 368.462 123.888 357.881C113.093 349.943 109.113 331.598 114.505 319.181C100.743 335.569 77.1279 354.285 54.6008 354.325C26.4993 354.375 21.9064 317.541 27.1458 297.206C34.4275 268.944 52.2408 254.722 72.1381 235.058C90.2007 217.209 105.817 182.459 99.724 148.034C95.3371 178.885 69.8063 216.653 52.0929 234.876C37.7439 249.638 20.1429 256.74 1.26239 264.596C-22.3022 274.401 -45.6894 278.018 -65.9789 294.875C-80.8881 307.262 -84.6172 318.509 -86.3287 337.243C-102.678 326.721 -118.376 311.545 -122.733 291.87C-125.675 278.584 -125.795 258.296 -117.036 247.235C-130.955 258.923 -143.302 271.966 -151.393 289.049C-171.385 331.253 -149.461 361.677 -134.366 374.801Z" fill="#FFA800"/>
<path d="M343.079 257.037C341.673 254.31 340.512 251.178 338.717 248.697C336.742 245.969 334.524 243.389 332.434 240.747C328.559 235.848 325.119 230.942 322.596 225.208C318.192 215.198 317.183 203.869 318.182 193.057C318.2 192.858 317.922 192.803 317.848 192.982C313.445 203.617 314.091 215.208 317.943 225.922C320.077 231.856 323.665 237.065 327.539 241.986C329.746 244.791 331.975 247.581 334.211 250.363C336.484 253.192 339.549 255.328 342.311 257.675C342.702 258.009 343.305 257.476 343.079 257.037Z" fill="#FFA800"/>
<path d="M372.371 287.665C372.761 287.082 373.111 286.575 373.602 286.076C374.177 285.492 374.777 284.943 375.139 284.199C376.28 281.853 377.112 279.136 377.806 276.62C379.065 272.063 379.243 266.568 376.837 262.371C376.364 261.545 374.867 261.817 375.118 262.893C375.604 264.986 375.6 267.178 375.24 269.291C374.87 271.466 373.963 273.452 373.243 275.52C372.466 277.75 371.413 279.882 370.639 282.108C370.149 283.521 370.491 285.025 370.052 286.463C369.639 287.817 369.129 289.135 368.712 290.488C368.558 290.985 369.168 291.515 369.597 291.111C370.686 290.085 371.542 288.906 372.371 287.665Z" fill="#FFA800"/>
<path d="M354.914 246.412C354.41 243.177 352.185 240.229 350.878 237.255C349.404 233.904 348 230.502 346.48 227.141C343.452 220.448 340.162 213.91 338.319 206.749C335.165 194.488 334.521 182.092 339.973 170.337C340.06 170.151 339.785 170.035 339.669 170.18C331.544 180.326 328.637 194.848 330.932 207.556C332.305 215.157 335.039 222.781 339.043 229.4C341.138 232.864 343.473 236.119 346.413 238.877C349.12 241.417 351.104 245.034 354.513 246.746C354.724 246.852 354.946 246.616 354.914 246.412Z" fill="#FFA800"/>
<path d="M249.734 151.282C256.276 145.413 262.096 138.249 266.936 130.933C269.4 127.209 271.611 123.321 273.611 119.33C275.714 115.131 277.006 110.882 278.467 106.442C278.597 106.045 277.998 105.682 277.783 106.087C275.66 110.105 272.965 113.899 270.43 117.681C267.852 121.528 265.017 125.193 261.981 128.689C255.835 135.769 248.672 141.612 241.084 147.075C229.259 155.588 209.948 164.57 211.61 181.895C211.641 182.219 212.059 182.251 212.234 182.036C222.608 169.259 237.667 162.107 249.734 151.282Z" fill="#FFA800"/>
<path d="M169.56 138.403C170.356 134.685 170.874 130.999 170.768 127.192C170.539 118.963 168.276 111.485 163.937 104.483C158.818 96.2236 151.441 89.8094 145.957 81.8334C141.151 74.8449 138.277 67.1422 137.354 58.7347C136.309 49.2315 139.738 41.5587 144.83 33.7815C145.026 33.4819 144.704 33.0103 144.351 33.2055C138.021 36.7095 134.22 44.0573 132.466 50.8592C130.298 59.2701 130.943 67.3086 133.681 75.5218C136.624 84.3453 142.151 91.7276 147.864 98.9362C150.891 102.756 154.09 106.57 156.413 110.874C158.286 114.347 159.545 118.02 160.703 121.778C161.935 125.779 162.535 129.954 162.875 134.118C163.234 138.494 162.036 142.916 162.816 147.275C162.981 148.2 164.18 148.738 164.92 148.058C167.669 145.529 168.8 141.95 169.56 138.403Z" fill="#FFA800"/>
<path d="M-1.57164 188.37C4.9814 182.36 9.97284 174.698 14.2702 166.967C18.5662 159.238 21.9742 151.286 24.2762 142.741C25.4081 138.54 26.2266 134.251 26.5808 129.91C26.9385 125.529 26.2326 121.446 26.0283 117.11C25.9857 116.213 24.5046 116.096 24.2822 116.949C23.2668 120.854 21.3767 124.618 20.0483 128.449C18.6886 132.37 17.3139 136.266 15.8576 140.159C13.1024 147.52 9.77088 154.832 5.85027 161.647C1.8223 168.649 -3.19564 174.861 -7.77276 181.484C-10.1107 184.867 -12.4428 188.264 -14.773 191.637C-17.1494 195.078 -20.5695 198.026 -23.4244 201.046C-24.0691 201.729 -23.4653 203.071 -22.472 202.569C-18.5386 200.581 -15.1866 197.919 -11.4673 195.613C-7.88951 193.394 -4.70759 191.247 -1.57164 188.37Z" fill="#FFA800"/>
<path d="M-79.0417 182.397C-78.7018 181.928 -79.2372 181.374 -79.7331 181.565C-81.4255 182.22 -83.3048 182.083 -85.0093 182.731C-86.9077 183.452 -88.7817 184.229 -90.6895 184.93C-94.2414 186.237 -97.7987 187.238 -101.485 188.089C-109.063 189.836 -116.62 191.351 -124.289 192.66C-139.483 195.253 -155.943 198.041 -167.473 209.176C-171.517 213.08 -174.33 217.275 -176.616 222.383C-178.739 227.126 -181.805 231.919 -182.254 237.22C-182.306 237.825 -181.588 237.984 -181.235 237.592C-178.032 234.023 -176.153 229.365 -173.018 225.711C-170.071 222.278 -166.126 219.049 -162.482 216.384C-156.712 212.163 -149.883 209.362 -143.156 207.069C-128.787 202.171 -113.272 201.458 -98.9749 196.362C-95.1492 194.998 -91.354 193.267 -87.8484 191.215C-85.9875 190.126 -84.1364 188.854 -82.5084 187.435C-80.877 186.012 -80.2752 184.098 -79.0417 182.397Z" fill="#FFA800"/>
<path d="M24.0075 206.153C26.555 202.518 27.4259 198.428 29.2458 194.483C30.8517 191.002 32.5488 187.927 32.9266 184.044C32.9534 183.766 32.6163 183.688 32.4566 183.872C29.8523 186.871 28.2193 190.7 25.4641 193.541C22.8468 196.241 19.5702 198.25 16.9439 200.972C11.4838 206.634 6.0626 211.988 -0.332439 216.627C-7.09446 221.532 -14.0514 226.189 -21.3253 230.304C-24.8535 232.299 -28.4088 234.259 -31.9755 236.185C-33.836 237.19 -35.7267 238.144 -37.5587 239.2C-39.5996 240.377 -41.3434 241.813 -43.3384 243.04C-43.7588 243.299 -43.6404 244.059 -43.065 243.941C-40.6782 243.451 -38.345 243.284 -35.9779 242.635C-34.108 242.122 -32.2693 241.494 -30.4293 240.886C-26.0709 239.443 -21.7893 237.865 -17.5678 236.059C-9.37698 232.557 -1.40089 228.532 5.79223 223.234C12.2671 218.466 19.3542 212.791 24.0075 206.153Z" fill="#FFA800"/>
<path d="M-94.2159 215.058C-98.9467 215.5 -103.689 215.355 -108.432 215.742C-113.018 216.116 -117.549 216.986 -122.023 218.054C-126.523 219.128 -130.946 220.642 -134.993 222.917C-137.01 224.05 -138.962 225.42 -140.678 226.975C-142.327 228.471 -143.391 230.572 -144.501 232.49C-145.174 233.654 -143.9 234.79 -142.8 234.052C-140.773 232.691 -138.468 231.816 -136.307 230.688C-134.49 229.741 -132.568 228.929 -130.667 228.169C-126.545 226.52 -122.14 225.401 -117.811 224.443C-113.468 223.482 -109.167 222.686 -104.95 221.224C-100.995 219.854 -97.4723 217.888 -93.9737 215.588C-93.7006 215.408 -93.9499 215.033 -94.2159 215.058Z" fill="#FFA800"/>
<path d="M84.5806 310.24C85.0587 309.608 84.2046 309.011 83.6359 309.372C77.7297 313.124 68.9257 312.081 63.1392 308.466C57.4054 304.883 54.888 297.982 56.2131 291.487C57.7945 283.736 61.4525 276.085 65.4982 269.344C67.5935 265.852 69.9012 262.476 72.1576 259.087C74.5572 255.483 76.7538 251.567 79.3453 248.131C79.668 247.704 79.0571 247.146 78.6526 247.495C75.6937 250.048 72.5142 252.177 69.6778 254.918C66.7877 257.71 64.1134 260.63 61.6209 263.785C56.7982 269.889 52.5072 276.562 49.646 283.822C46.8187 290.994 45.4466 298.766 48.8452 306.02C51.8775 312.493 57.9005 318.005 65.1174 319.025C73.1509 320.159 79.8244 316.525 84.5806 310.24Z" fill="#FFA800"/>
<path d="M133.287 184.241C134.988 181.954 136.424 179.507 137.719 176.97C138.966 174.53 140.162 172.058 141.114 169.486C142.088 166.854 142.509 163.928 142.85 161.148C143.53 155.592 143.444 149.978 142.318 144.489C141.752 141.731 141.058 138.994 139.729 136.496C138.112 133.458 135.762 130.691 133.698 127.95C133.386 127.535 132.7 127.872 132.789 128.365C133.81 133.979 134.442 139.698 135.153 145.359C135.779 150.34 135.873 155.464 135.308 160.454C134.762 165.291 134.011 170.444 132.542 175.091C131.787 177.48 130.864 179.819 129.836 182.103C128.851 184.289 127.078 186.632 126.653 188.977C126.534 189.635 127.315 190.087 127.868 189.842C130.012 188.891 131.921 186.079 133.287 184.241Z" fill="#FFA800"/>
<path d="M204.734 231.253C210.521 217.172 221.654 206.314 232.911 196.492C239.02 191.162 245.319 185.972 250.97 180.144C253.711 177.316 255.869 173.846 257.957 170.523C260.062 167.173 262.068 163.869 263.56 160.193C263.719 159.803 263.194 159.606 262.952 159.879C260.022 163.173 257.076 166.447 253.736 169.334C250.545 172.09 247.234 174.605 244.167 177.505C238.229 183.117 232.025 188.424 226.223 194.183C220.926 199.441 216.049 205.109 211.992 211.389C210.108 214.305 208.401 217.354 206.974 220.521C205.416 223.979 204.717 227.399 204.066 231.104C203.996 231.504 204.591 231.602 204.734 231.253Z" fill="#FFA800"/>
<path d="M276.029 181.623C278.704 176.708 281.144 171.665 283.308 166.505C287.624 156.218 290.551 145.491 291.511 134.364C291.597 133.365 290.064 132.963 289.757 133.971C286.623 144.266 283.304 154.552 279.233 164.519C277.203 169.488 274.933 174.364 272.398 179.096C271.184 181.363 270.051 183.623 268.946 185.945C267.781 188.395 266.311 191.024 265.582 193.634C265.446 194.122 265.978 194.537 266.399 194.209C270.382 191.116 273.647 186.002 276.029 181.623Z" fill="#FFA800"/>
<path d="M293.862 238.388C294.214 236.676 293.506 234.207 293.269 232.463C292.99 230.414 292.905 228.423 293.046 226.358C293.32 222.365 294.572 218.376 295.498 214.496C296.453 210.492 297.425 206.57 299.065 202.77C299.863 200.918 300.925 199.222 301.78 197.404C302.72 195.405 303.478 193.348 304.657 191.473C304.951 191.005 304.468 190.273 303.912 190.577C301.908 191.673 299.844 192.702 298.069 194.157C296.326 195.585 294.942 197.506 293.665 199.351C290.911 203.331 288.614 207.968 287.647 212.74C286.675 217.528 287.289 222.077 288.286 226.806C288.737 228.948 289.297 231.093 289.957 233.181C290.519 234.959 291.445 237.661 292.983 238.797C293.353 239.07 293.782 238.779 293.862 238.388Z" fill="#FFA800"/>
<path d="M-151.468 327.956C-147.491 356.308 -131.996 373.535 -124.858 376.989C-74.7114 401.248 -31.162 381.958 3.12928 383.218C55.5864 385.146 153.89 396.805 204.06 381.364C223.71 375.316 305.342 394.245 344.864 379.448C379.476 366.489 373.7 319.231 373.7 319.231C373.7 319.231 362.652 335.823 345.262 340.798C335.535 343.581 314.674 336.258 314.794 336.026C319.461 326.511 314.985 311.959 319.015 302.187C316.628 303.582 314.478 305.302 312.564 307.346C308.555 310.574 304.49 313.73 300.37 316.815C291.951 322.84 282.64 327.681 272.341 329.462C265.106 330.713 258.157 329.712 251.38 326.935C248.447 326.028 243.493 322.611 241.78 319.42C238.116 332.569 233.091 346.644 223.028 356.272C216.156 362.847 187.666 377.898 168.963 379.112C113.765 382.697 104.458 338.881 104.458 338.881C104.458 338.881 84.8245 376.023 41.9352 369.365C21.2899 366.16 14.1125 344.228 13.0175 334.449C12.4036 328.967 12.8035 323.315 13.194 317.835C13.6402 311.571 14.1538 305.27 15.2897 299.093C17.5984 286.54 24.8371 276.223 32.1322 266.074C23.14 271.293 14.4929 276.2 4.6949 279.874C-1.58943 282.231 -7.87141 284.588 -14.306 286.508C-19.0824 287.934 -23.8612 289.175 -28.5067 291.019C-44.1758 297.241 -58.3829 307.993 -68.8055 321.488C-76.73 331.748 -77.6837 342.934 -78.1627 342.892C-82.8962 342.476 -98.0033 346.859 -121.839 319.232C-131.203 308.378 -134.119 278.885 -134.119 278.885C-134.119 278.885 -155.445 299.605 -151.468 327.956Z" fill="#FF7425"/>
<path d="M-143.163 318.704C-140.486 338.054 -134.28 358.509 -118.629 370.198C-109.493 377.021 -98.103 380.074 -86.8551 381.939C-76.5961 383.64 -66.0312 384.467 -55.835 382.423C-50.5715 381.367 -45.4878 379.563 -40.2646 378.324C-34.6357 376.988 -28.8717 376.315 -23.1121 375.772C0.037251 373.59 23.7931 373.52 46.0605 380.216C29.7681 374.559 15.9146 362.206 8.43604 346.665C0.957112 331.125 -0.0529742 312.591 5.69126 296.329C-13.7193 303.094 -29.8214 318.768 -37.1054 337.99C-38.8046 327.592 -37.6583 316.743 -33.8236 306.93C-49.2799 320.088 -65.5495 334.501 -70.6885 354.139C-92.08 356.912 -113.832 347.707 -130.42 333.92C-137.918 327.688 -143.163 318.704 -143.163 318.704Z" fill="#FF7425"/>
<path d="M103.181 353.419C108.03 366.051 118.736 376.293 131.57 380.579C122.832 382.613 113.747 382.441 104.785 382.054C96.6803 381.704 88.5831 381.186 80.5 380.502C76.8447 380.193 71.2635 380.695 67.8921 379.3C63.8249 377.617 65.89 377.376 69.5812 376.175C76.1345 374.043 82.1109 370.777 87.6931 366.754C89.3681 365.547 103.812 355.064 103.181 353.419Z" fill="#FF7425"/>
<path d="M251.675 341.424C252.015 346.178 256.619 349.775 261.338 350.44C266.057 351.106 270.79 349.489 275.145 347.555C287.505 342.068 298.613 333.782 307.396 323.499C306.202 329.52 301.989 335.113 302.956 341.174C303.676 345.681 307.198 349.282 311.127 351.604C318.082 355.714 326.571 356.673 334.576 355.586C342.581 354.498 350.2 351.495 357.532 348.104C354.074 356.423 347.251 363.068 339.363 367.418C331.475 371.769 322.557 373.97 313.616 375.071C304.711 376.167 295.492 376.184 286.98 373.347C281.77 371.61 276.886 368.827 271.489 367.813C263.153 366.247 254.714 369.054 246.442 370.928C239.623 372.473 232.664 373.394 225.678 373.68C216.787 374.044 219.746 370.96 225.166 367.558C235.754 360.913 243.877 351.017 251.675 341.424Z" fill="#FF7425"/>
<defs>
<clipPath id="clip0_833_775">
<rect width="776" height="776" fill="white" transform="matrix(1 0 0 -1 252.279 853)"/>
</clipPath>
</defs>
</svg>
