<?xml version="1.0" standalone="no"?>
<!DOCTYPE svg PUBLIC "-//W3C//DTD SVG 20010904//EN"
 "http://www.w3.org/TR/2001/REC-SVG-20010904/DTD/svg10.dtd">
<svg version="1.0" xmlns="http://www.w3.org/2000/svg"
 width="700.000000pt" height="700.000000pt" viewBox="0 0 700.000000 700.000000"
 preserveAspectRatio="xMidYMid meet">
<metadata>
Created by potrace 1.14, written by Peter Selinger 2001-2017
</metadata>
<g transform="translate(0.000000,700.000000) scale(0.100000,-0.100000)"
fill="#000000" stroke="none">
<path d="M3295 6989 c-716 -41 -1373 -289 -1957 -739 -155 -119 -463 -426
-582 -580 -286 -369 -504 -797 -620 -1215 -228 -824 -155 -1704 205 -2454 184
-384 387 -671 688 -972 286 -285 560 -483 920 -663 847 -425 1877 -477 2781
-141 194 72 504 230 675 342 233 155 365 262 565 463 308 308 506 587 693 980
446 933 442 2067 -12 3005 -182 376 -376 649 -671 946 -290 292 -541 476 -890
653 -448 228 -890 346 -1410 376 -180 11 -194 11 -385 -1z m71 -1299 c418 -72
717 -279 889 -616 150 -294 181 -623 98 -1034 -29 -145 -41 -354 -24 -416 27
-101 99 -154 208 -154 115 0 190 55 258 190 36 72 60 89 104 75 11 -3 49 -44
84 -91 204 -272 289 -608 247 -979 -23 -194 -62 -331 -139 -485 -218 -440
-643 -756 -1172 -872 -92 -20 -131 -22 -329 -22 -186 1 -246 4 -344 23 -690
125 -1180 542 -1391 1183 -63 192 -86 323 -92 514 -17 524 164 1001 514 1352
62 62 77 72 107 72 62 0 65 -13 59 -249 -4 -139 -2 -240 7 -307 12 -102 49
-235 73 -268 12 -17 15 -11 21 57 25 276 175 552 470 866 186 197 245 323 254
531 3 86 0 132 -12 180 -24 95 -86 215 -154 296 -33 39 -65 81 -71 92 -13 25
-1 65 26 82 23 14 160 5 309 -20z"/>
</g>
</svg>
