<?xml version="1.0" standalone="no"?>
<!DOCTYPE svg PUBLIC "-//W3C//DTD SVG 20010904//EN"
 "http://www.w3.org/TR/2001/REC-SVG-20010904/DTD/svg10.dtd">
<svg version="1.0" xmlns="http://www.w3.org/2000/svg"
 width="700.000000pt" height="700.000000pt" viewBox="0 0 700.000000 700.000000"
 preserveAspectRatio="xMidYMid meet">
<metadata>
Created by potrace 1.14, written by Peter Selinger 2001-2017
</metadata>
<g transform="translate(0.000000,700.000000) scale(0.100000,-0.100000)"
fill="#000000" stroke="none">
<path d="M3377 4384 c-1 -1 -29 -4 -62 -5 -77 -3 -189 -30 -251 -59 -181 -86
-273 -225 -279 -419 -4 -115 13 -190 61 -271 80 -137 237 -228 477 -275 66
-14 179 -50 217 -71 132 -72 122 -222 -20 -285 -62 -28 -171 -28 -231 -2 -57
25 -110 71 -134 118 -23 41 0 44 -240 -23 -190 -53 -183 -47 -144 -129 31 -65
101 -136 187 -190 130 -83 269 -123 442 -127 288 -7 510 96 597 276 41 85 54
146 52 238 -5 203 -119 367 -314 453 -33 14 -144 47 -245 73 -187 48 -246 73
-275 118 -36 54 -27 144 18 188 64 61 192 78 288 37 51 -22 113 -82 129 -124
5 -14 15 -23 22 -21 7 3 36 12 64 20 28 9 59 18 70 20 18 4 237 67 241 70 1 1
-12 28 -29 61 -95 187 -252 292 -478 320 -57 8 -159 13 -163 9z"/>
<path d="M4828 4374 c-194 -29 -370 -116 -500 -246 -38 -38 -118 -149 -142
-196 -36 -71 -76 -188 -84 -246 -14 -99 -7 -326 12 -401 21 -81 80 -214 124
-277 103 -150 306 -290 484 -333 35 -9 72 -18 83 -21 11 -3 79 -7 150 -9 173
-5 305 18 433 76 51 23 42 28 149 -80 40 -41 75 -72 78 -70 154 145 235 225
235 233 0 5 -34 43 -75 84 l-76 75 29 36 c45 56 88 139 115 221 31 92 39 148
42 269 8 406 -214 729 -585 850 -36 12 -78 24 -95 26 -16 3 -42 8 -58 11 -57
12 -235 11 -319 -2z m344 -376 c131 -49 235 -161 284 -308 35 -105 23 -320
-24 -414 l-14 -29 -99 99 -98 98 -27 -24 c-14 -14 -40 -38 -58 -55 -17 -16
-62 -59 -100 -93 l-69 -64 93 -93 92 -92 -34 -8 c-66 -15 -195 -15 -255 0
-237 61 -377 262 -367 526 8 230 135 404 342 470 85 27 244 21 334 -13z"/>
<path d="M840 3516 l0 -843 198 1 197 1 0 533 c0 292 2 532 5 532 4 -1 154
-210 334 -469 22 -31 67 -95 101 -142 l62 -86 246 355 247 354 1 -528 c1 -291
1 -534 0 -540 -1 -7 59 -11 196 -10 l198 1 2 841 2 842 -219 0 -218 0 -68
-101 c-38 -56 -73 -106 -77 -112 -9 -11 -79 -112 -215 -310 -52 -74 -97 -135
-100 -135 -4 0 -14 11 -22 25 -8 14 -109 162 -225 329 l-209 303 -218 1 -218
1 0 -843z"/>
<path d="M6147 3063 c-122 -35 -189 -177 -138 -289 65 -142 248 -181 359 -76
171 163 8 432 -221 365z"/>
</g>
</svg>
