<svg width="550" height="551" viewBox="0 0 550 551" fill="none" xmlns="http://www.w3.org/2000/svg">
<circle cx="368" cy="231" r="20" fill="#15E3FF"/>
<rect y="243" width="550" height="291" rx="25" fill="#1D1E27"/>
<g clip-path="url(#clip0_805_2546)">
<path d="M186.998 351.991C225.653 351.991 256.989 320.655 256.989 282C256.989 243.345 225.653 212.01 186.998 212.01C148.344 212.01 117.008 243.345 117.008 282C117.008 320.655 148.344 351.991 186.998 351.991Z" fill="#53FF50"/>
<path d="M212.277 248.115C217.086 248.115 220.984 244.217 220.984 239.408C220.984 234.6 217.086 230.701 212.277 230.701C207.468 230.701 203.57 234.6 203.57 239.408C203.57 244.217 207.468 248.115 212.277 248.115Z" fill="white"/>
<mask id="mask0_805_2546" style="mask-type:luminance" maskUnits="userSpaceOnUse" x="203" y="230" width="18" height="19">
<path d="M212.277 248.115C217.086 248.115 220.984 244.217 220.984 239.408C220.984 234.6 217.086 230.701 212.277 230.701C207.468 230.701 203.57 234.6 203.57 239.408C203.57 244.217 207.468 248.115 212.277 248.115Z" fill="white"/>
</mask>
<g mask="url(#mask0_805_2546)">
<path d="M215.075 244.018C218.894 244.018 221.99 240.922 221.99 237.103C221.99 233.284 218.894 230.188 215.075 230.188C211.256 230.188 208.16 233.284 208.16 237.103C208.16 240.922 211.256 244.018 215.075 244.018Z" fill="#0A0B15"/>
</g>
<path d="M191.949 256.747C196.758 256.747 200.656 252.849 200.656 248.04C200.656 243.232 196.758 239.333 191.949 239.333C187.14 239.333 183.242 243.232 183.242 248.04C183.242 252.849 187.14 256.747 191.949 256.747Z" fill="white"/>
<mask id="mask1_805_2546" style="mask-type:luminance" maskUnits="userSpaceOnUse" x="183" y="239" width="18" height="18">
<path d="M191.949 256.747C196.758 256.747 200.656 252.849 200.656 248.04C200.656 243.232 196.758 239.333 191.949 239.333C187.14 239.333 183.242 243.232 183.242 248.04C183.242 252.849 187.14 256.747 191.949 256.747Z" fill="white"/>
</mask>
<g mask="url(#mask1_805_2546)">
<path d="M194.747 252.65C198.566 252.65 201.662 249.554 201.662 245.735C201.662 241.916 198.566 238.82 194.747 238.82C190.928 238.82 187.832 241.916 187.832 245.735C187.832 249.554 190.928 252.65 194.747 252.65Z" fill="#0A0B15"/>
</g>
<path d="M202.895 255.833C205.434 258.091 210.137 256.094 210.277 252.697C210.324 251.736 209.11 251.139 208.373 251.736L208.037 251.997C206.665 253.071 205.256 253.584 203.539 253.789C202.578 253.901 202.195 255.198 202.905 255.824L202.895 255.833Z" fill="#0A0B15"/>
</g>
<path d="M275 337.089C291.066 337.089 304.921 329.017 311.282 317.371C315.254 310.101 321.716 303 330 303H525C538.807 303 550 312.539 550 324.306V529.694C550 541.461 538.807 551 525 551H25C11.1929 551 0 541.461 0 529.694V324.306C0 312.539 11.1929 303 25 303H220C228.284 303 234.746 310.101 238.718 317.371C245.079 329.017 258.934 337.089 275 337.089Z" fill="#22232C"/>
<g clip-path="url(#clip1_805_2546)">
<path d="M287.961 177.961C265.87 177.961 247.961 160.053 247.961 137.961C247.961 115.87 265.87 97.9614 287.961 97.9614C310.052 97.9614 327.961 115.87 327.961 137.961C327.961 160.053 310.052 177.961 287.961 177.961Z" fill="#15E3FF"/>
<path d="M258.399 144.91C255.651 144.91 253.423 142.683 253.423 139.934C253.423 137.186 255.651 134.958 258.399 134.958C261.147 134.958 263.375 137.186 263.375 139.934C263.375 142.683 261.147 144.91 258.399 144.91Z" fill="white"/>
<mask id="mask2_805_2546" style="mask-type:luminance" maskUnits="userSpaceOnUse" x="253" y="134" width="11" height="11">
<path d="M258.399 144.91C255.651 144.91 253.423 142.683 253.423 139.934C253.423 137.186 255.651 134.958 258.399 134.958C261.147 134.958 263.375 137.186 263.375 139.934C263.375 142.683 261.147 144.91 258.399 144.91Z" fill="white"/>
</mask>
<g mask="url(#mask2_805_2546)">
<path d="M257.048 145.241C254.865 145.241 253.096 143.472 253.096 141.289C253.096 139.107 254.865 137.337 257.048 137.337C259.231 137.337 261 139.107 261 141.289C261 143.472 259.231 145.241 257.048 145.241Z" fill="#0A0B15"/>
</g>
<path d="M269.329 138.602C266.581 138.602 264.353 136.374 264.353 133.626C264.353 130.877 266.581 128.65 269.329 128.65C272.077 128.65 274.305 130.877 274.305 133.626C274.305 136.374 272.077 138.602 269.329 138.602Z" fill="white"/>
<mask id="mask3_805_2546" style="mask-type:luminance" maskUnits="userSpaceOnUse" x="264" y="128" width="11" height="11">
<path d="M269.329 138.602C266.581 138.602 264.353 136.374 264.353 133.626C264.353 130.877 266.581 128.65 269.329 128.65C272.077 128.65 274.305 130.877 274.305 133.626C274.305 136.374 272.077 138.602 269.329 138.602Z" fill="white"/>
</mask>
<g mask="url(#mask3_805_2546)">
<path d="M267.978 138.927C265.795 138.927 264.026 137.158 264.026 134.975C264.026 132.793 265.795 131.023 267.978 131.023C270.16 131.023 271.93 132.793 271.93 134.975C271.93 137.158 270.16 138.927 267.978 138.927Z" fill="#0A0B15"/>
</g>
<path d="M269.118 141.306C269.278 143.242 266.744 144.698 265.15 143.594C264.696 143.285 264.835 142.527 265.368 142.394L265.603 142.33C266.568 142.074 267.283 141.61 267.971 140.895C268.355 140.495 269.075 140.762 269.118 141.306Z" fill="#0A0B15"/>
</g>
<circle cx="163" cy="43" r="20" fill="#53FF50"/>
<circle cx="428" cy="292" r="5" fill="#53FF50"/>
<circle cx="75.5" cy="191.5" r="1.5" fill="#15E3FF"/>
<circle cx="401.5" cy="144.5" r="1.5" fill="#53FF50"/>
<circle cx="45" cy="337" r="5" fill="#53FF50"/>
<circle cx="148" cy="138" r="5" fill="#53FF50"/>
<circle cx="505" cy="88" r="5" fill="#15E3FF"/>
<path d="M275 333C291.918 333 306.383 322.497 312.23 307.655C315.267 299.947 321.716 293 330 293H525C538.807 293 550 304.193 550 318V343H0V318C0 304.193 11.1929 293 25 293H220C228.284 293 234.733 299.947 237.77 307.655C243.617 322.497 258.082 333 275 333Z" fill="#22232C"/>
<defs>
<clipPath id="clip0_805_2546">
<rect width="140" height="140" fill="white" transform="translate(117 212)"/>
</clipPath>
<clipPath id="clip1_805_2546">
<rect width="80" height="80" fill="white" transform="matrix(-1 0 0 1 327.961 97.9614)"/>
</clipPath>
</defs>
</svg>
